SplineFontDB: 3.0
FontName: MetroPass
FullName: MetroPass
FamilyName: MetroPass
Weight: Book
Copyright: (c) Copyright 19972000, TeA Curran http://www.grilledcheese.com
Version: Fontographer 4.7 8/11/08 FG4M0000002045
ItalicAngle: 0
UnderlinePosition: -123
UnderlineWidth: 20
Ascent: 800
Descent: 200
InvalidEm: 0
sfntRevision: 0x00010000
LayerCount: 2
Layer: 0 1 "Back" 1
Layer: 1 1 "Fore" 0
XUID: [1021 270 -1463357204 10421752]
FSType: 0
OS2Version: 0
OS2_WeightWidthSlopeOnly: 0
OS2_UseTypoMetrics: 1
CreationTime: 1218423906
ModificationTime: 1218423906
PfmFamily: 81
TTFWeight: 400
TTFWidth: 5
LineGap: 0
VLineGap: 0
Panose: 0 0 4 0 0 0 0 0 0 0
OS2TypoAscent: 827
OS2TypoAOffset: 0
OS2TypoDescent: -379
OS2TypoDOffset: 0
OS2TypoLinegap: 0
OS2WinAscent: 827
OS2WinAOffset: 0
OS2WinDescent: 379
OS2WinDOffset: 0
HheadAscent: 827
HheadAOffset: 0
HheadDescent: -379
HheadDOffset: 0
OS2SubXSize: 700
OS2SubYSize: 650
OS2SubXOff: 0
OS2SubYOff: 143
OS2SupXSize: 700
OS2SupYSize: 650
OS2SupXOff: 0
OS2SupYOff: 453
OS2StrikeYSize: 50
OS2StrikeYPos: 259
OS2CapHeight: 0
OS2XHeight: 0
OS2Vendor: 'Pyrs'
OS2UnicodeRanges: 00000000.00000000.00000000.00000000
Lookup: 258 0 0 "'kern' Horizontal Kerning in Latin lookup 0" { "'kern' Horizontal Kerning in Latin lookup 0 subtable"  } ['kern' ('DFLT' <'dflt' > 'latn' <'dflt' > ) ]
DEI: 91125
TtTable: prep
NPUSHB
 21
 13
 13
 12
 12
 11
 11
 10
 10
 9
 9
 8
 8
 3
 3
 2
 2
 1
 1
 0
 0
 1
SCANTYPE
PUSHW_1
 511
SCANCTRL
RCVT
ROUND[Grey]
WCVTP
RCVT
ROUND[Grey]
WCVTP
RCVT
ROUND[Grey]
WCVTP
RCVT
ROUND[Grey]
WCVTP
RCVT
ROUND[Grey]
WCVTP
RCVT
ROUND[Grey]
WCVTP
RCVT
ROUND[Grey]
WCVTP
RCVT
ROUND[Grey]
WCVTP
RCVT
ROUND[Grey]
WCVTP
RCVT
ROUND[Grey]
WCVTP
PUSHB_4
 5
 4
 70
 0
CALL
PUSHB_4
 7
 6
 70
 0
CALL
PUSHB_2
 4
 4
RCVT
ROUND[Grey]
WCVTP
PUSHB_2
 6
 6
RCVT
ROUND[Grey]
WCVTP
EndTTInstrs
TtTable: fpgm
NPUSHB
 1
 0
FDEF
SROUND
RCVT
DUP
PUSHB_1
 3
CINDEX
RCVT
SWAP
SUB
ROUND[Grey]
RTG
SWAP
ROUND[Grey]
ADD
WCVTP
ENDF
EndTTInstrs
ShortTable: cvt  18
  -377
  -3

StartChar: .notdef
Encoding: 65536 -1 0
Width: 500
Flags: W
LayerCount: 2
Back
Fore
SplineSet
63 0 m 1,0,-1
 63 827 l 1,1,-1
 438 827 l 1,2,-1
 438 0 l 1,3,-1
 63 0 l 1,0,-1
125 63 m 1,4,-1
 375 63 l 1,5,-1
 375 765 l 1,6,-1
 125 765 l 1,7,-1
 125 63 l 1,4,-1
EndSplineSet
EndChar

StartChar: exclam
Encoding: 33 33 4
Width: 324
Flags: W
LayerCount: 2
Back
Fore
SplineSet
214 338 m 1,0,-1
 214 650 l 1,1,-1
 335 650 l 1,2,-1
 306 676 l 1,3,-1
 220 676 l 1,4,-1
 205 679 l 1,5,-1
 205 756 l 1,6,-1
 236 756 l 1,7,-1
 264 800 l 1,8,-1
 68 800 l 1,9,-1
 96 756 l 1,10,-1
 130 756 l 1,11,-1
 130 679 l 1,12,-1
 116 676 l 1,13,-1
 29 676 l 1,14,-1
 1 650 l 1,15,-1
 122 650 l 1,16,-1
 122 338 l 1,17,-1
 144 320 l 1,18,-1
 145 275 l 1,19,-1
 156 266 l 1,20,-1
 156 229 l 1,21,-1
 162 214 l 1,22,-1
 170 -50 l 1,23,-1
 174 214 l 1,24,-1
 179 229 l 1,25,-1
 179 266 l 1,26,-1
 191 275 l 1,27,-1
 192 320 l 1,28,-1
 214 338 l 1,0,-1
196 524 m 1,29,-1
 196 615 l 1,30,-1
 166 615 l 1,31,-1
 166 619 l 1,32,-1
 199 619 l 1,33,-1
 199 410 l 1,34,-1
 169 410 l 1,35,-1
 169 414 l 1,36,-1
 196 414 l 1,37,-1
 196 521 l 1,38,-1
 180 521 l 1,39,-1
 180 524 l 1,40,-1
 196 524 l 1,29,-1
EndSplineSet
EndChar

StartChar: quotedbl
Encoding: 34 34 5
Width: 804
Flags: W
LayerCount: 2
Back
Fore
SplineSet
185 363 m 1,0,-1
 -5 473 l 1,1,-1
 -5 693 l 1,2,-1
 185 803 l 1,3,-1
 376 693 l 1,4,-1
 376 473 l 1,5,-1
 185 363 l 1,0,-1
185 375 m 1,6,-1
 366 479 l 1,7,-1
 366 687 l 1,8,-1
 185 791 l 1,9,-1
 5 687 l 1,10,-1
 5 479 l 1,11,-1
 185 375 l 1,6,-1
392 -6 m 1,12,-1
 202 104 l 1,13,-1
 202 324 l 1,14,-1
 392 434 l 1,15,-1
 582 324 l 1,16,-1
 582 104 l 1,17,-1
 392 -6 l 1,12,-1
392 6 m 1,18,-1
 572 110 l 1,19,-1
 572 318 l 1,20,-1
 392 422 l 1,21,-1
 212 318 l 1,22,-1
 212 110 l 1,23,-1
 392 6 l 1,18,-1
606 366 m 1,24,-1
 416 476 l 1,25,-1
 416 696 l 1,26,-1
 606 806 l 1,27,-1
 796 696 l 1,28,-1
 796 476 l 1,29,-1
 606 366 l 1,24,-1
606 378 m 1,30,-1
 786 482 l 1,31,-1
 786 690 l 1,32,-1
 606 794 l 1,33,-1
 426 690 l 1,34,-1
 426 482 l 1,35,-1
 606 378 l 1,30,-1
180 450 m 1,36,-1
 180 584 l 1,37,-1
 31 668 l 1,38,-1
 35 676 l 1,39,-1
 190 589 l 1,40,-1
 190 450 l 1,41,-1
 180 450 l 1,36,-1
764 671 m 1,42,-1
 605 578 l 1,43,-1
 460 664 l 1,44,-1
 466 672 l 1,45,-1
 605 590 l 1,46,-1
 758 679 l 1,47,-1
 764 671 l 1,42,-1
536 297 m 1,48,-1
 398 215 l 1,49,-1
 398 78 l 1,50,-1
 388 78 l 1,51,-1
 388 221 l 1,52,-1
 530 305 l 1,53,-1
 536 297 l 1,48,-1
EndSplineSet
EndChar

StartChar: numbersign
Encoding: 35 35 6
Width: 799
Flags: W
LayerCount: 2
Back
Fore
SplineSet
791 479 m 1,0,-1
 606 372 l 1,1,-1
 421 479 l 1,2,-1
 421 693 l 1,3,-1
 606 800 l 1,4,-1
 791 693 l 1,5,-1
 791 479 l 1,0,-1
371 476 m 1,6,-1
 185 369 l 1,7,-1
 0 476 l 1,8,-1
 0 690 l 1,9,-1
 185 797 l 1,10,-1
 371 690 l 1,11,-1
 371 476 l 1,6,-1
577 107 m 1,12,-1
 392 0 l 1,13,-1
 207 107 l 1,14,-1
 207 321 l 1,15,-1
 392 428 l 1,16,-1
 577 321 l 1,17,-1
 577 107 l 1,12,-1
764 671 m 1,18,-1
 758 679 l 1,19,-1
 605 590 l 1,20,-1
 466 672 l 1,21,-1
 460 664 l 1,22,-1
 605 578 l 1,23,-1
 764 671 l 1,18,-1
190 450 m 1,24,-1
 190 589 l 1,25,-1
 35 676 l 1,26,-1
 31 668 l 1,27,-1
 180 584 l 1,28,-1
 180 450 l 1,29,-1
 190 450 l 1,24,-1
536 297 m 1,30,-1
 530 305 l 1,31,-1
 388 221 l 1,32,-1
 388 78 l 1,33,-1
 398 78 l 1,34,-1
 398 215 l 1,35,-1
 536 297 l 1,30,-1
EndSplineSet
EndChar

StartChar: dollar
Encoding: 36 36 7
Width: 799
Flags: W
LayerCount: 2
Back
Fore
SplineSet
791 479 m 1,0,-1
 606 372 l 1,1,-1
 421 479 l 1,2,-1
 421 693 l 1,3,-1
 606 800 l 1,4,-1
 791 693 l 1,5,-1
 791 479 l 1,0,-1
371 476 m 1,6,-1
 185 369 l 1,7,-1
 0 476 l 1,8,-1
 0 690 l 1,9,-1
 185 797 l 1,10,-1
 371 690 l 1,11,-1
 371 476 l 1,6,-1
577 107 m 1,12,-1
 392 0 l 1,13,-1
 207 107 l 1,14,-1
 207 321 l 1,15,-1
 392 428 l 1,16,-1
 577 321 l 1,17,-1
 577 107 l 1,12,-1
766 677 m 1,18,-1
 761 686 l 1,19,-1
 608 596 l 1,20,-1
 468 679 l 1,21,-1
 463 670 l 1,22,-1
 601 589 l 1,23,-1
 601 450 l 1,24,-1
 611 450 l 1,25,-1
 611 587 l 1,26,-1
 766 677 l 1,18,-1
344 668 m 1,27,-1
 338 676 l 1,28,-1
 185 587 l 1,29,-1
 46 669 l 1,30,-1
 40 661 l 1,31,-1
 178 579 l 1,32,-1
 178 440 l 1,33,-1
 188 440 l 1,34,-1
 188 577 l 1,35,-1
 344 668 l 1,27,-1
549 295 m 1,36,-1
 544 304 l 1,37,-1
 391 214 l 1,38,-1
 251 297 l 1,39,-1
 246 288 l 1,40,-1
 384 207 l 1,41,-1
 384 67 l 1,42,-1
 394 67 l 1,43,-1
 394 205 l 1,44,-1
 549 295 l 1,36,-1
EndSplineSet
EndChar

StartChar: percent
Encoding: 37 37 8
Width: 804
Flags: W
LayerCount: 2
Back
Fore
SplineSet
185 363 m 1,0,-1
 -5 473 l 1,1,-1
 -5 693 l 1,2,-1
 185 803 l 1,3,-1
 376 693 l 1,4,-1
 376 473 l 1,5,-1
 185 363 l 1,0,-1
185 375 m 1,6,-1
 366 479 l 1,7,-1
 366 687 l 1,8,-1
 185 791 l 1,9,-1
 5 687 l 1,10,-1
 5 479 l 1,11,-1
 185 375 l 1,6,-1
392 -6 m 1,12,-1
 202 104 l 1,13,-1
 202 324 l 1,14,-1
 392 434 l 1,15,-1
 582 324 l 1,16,-1
 582 104 l 1,17,-1
 392 -6 l 1,12,-1
392 6 m 1,18,-1
 572 110 l 1,19,-1
 572 318 l 1,20,-1
 392 422 l 1,21,-1
 212 318 l 1,22,-1
 212 110 l 1,23,-1
 392 6 l 1,18,-1
606 366 m 1,24,-1
 416 476 l 1,25,-1
 416 696 l 1,26,-1
 606 806 l 1,27,-1
 796 696 l 1,28,-1
 796 476 l 1,29,-1
 606 366 l 1,24,-1
606 378 m 1,30,-1
 786 482 l 1,31,-1
 786 690 l 1,32,-1
 606 794 l 1,33,-1
 426 690 l 1,34,-1
 426 482 l 1,35,-1
 606 378 l 1,30,-1
180 450 m 1,36,-1
 180 584 l 1,37,-1
 31 668 l 1,38,-1
 35 676 l 1,39,-1
 190 589 l 1,40,-1
 190 450 l 1,41,-1
 180 450 l 1,36,-1
764 671 m 1,42,-1
 605 578 l 1,43,-1
 460 664 l 1,44,-1
 466 672 l 1,45,-1
 605 590 l 1,46,-1
 758 679 l 1,47,-1
 764 671 l 1,42,-1
536 297 m 1,48,-1
 398 215 l 1,49,-1
 398 78 l 1,50,-1
 388 78 l 1,51,-1
 388 221 l 1,52,-1
 530 305 l 1,53,-1
 536 297 l 1,48,-1
EndSplineSet
EndChar

StartChar: ampersand
Encoding: 38 38 9
Width: 799
Flags: W
LayerCount: 2
Back
Fore
SplineSet
791 479 m 1,0,-1
 606 372 l 1,1,-1
 421 479 l 1,2,-1
 421 693 l 1,3,-1
 606 800 l 1,4,-1
 791 693 l 1,5,-1
 791 479 l 1,0,-1
371 476 m 1,6,-1
 185 369 l 1,7,-1
 0 476 l 1,8,-1
 0 690 l 1,9,-1
 185 797 l 1,10,-1
 371 690 l 1,11,-1
 371 476 l 1,6,-1
577 107 m 1,12,-1
 392 0 l 1,13,-1
 207 107 l 1,14,-1
 207 321 l 1,15,-1
 392 428 l 1,16,-1
 577 321 l 1,17,-1
 577 107 l 1,12,-1
764 671 m 1,18,-1
 758 679 l 1,19,-1
 605 590 l 1,20,-1
 466 672 l 1,21,-1
 460 664 l 1,22,-1
 605 578 l 1,23,-1
 764 671 l 1,18,-1
190 450 m 1,24,-1
 190 589 l 1,25,-1
 35 676 l 1,26,-1
 31 668 l 1,27,-1
 180 584 l 1,28,-1
 180 450 l 1,29,-1
 190 450 l 1,24,-1
536 297 m 1,30,-1
 530 305 l 1,31,-1
 388 221 l 1,32,-1
 388 78 l 1,33,-1
 398 78 l 1,34,-1
 398 215 l 1,35,-1
 536 297 l 1,30,-1
EndSplineSet
EndChar

StartChar: quotesingle
Encoding: 39 39 10
Width: 799
Flags: W
LayerCount: 2
Back
Fore
SplineSet
791 479 m 1,0,-1
 606 372 l 1,1,-1
 421 479 l 1,2,-1
 421 693 l 1,3,-1
 606 800 l 1,4,-1
 791 693 l 1,5,-1
 791 479 l 1,0,-1
371 476 m 1,6,-1
 185 369 l 1,7,-1
 0 476 l 1,8,-1
 0 690 l 1,9,-1
 185 797 l 1,10,-1
 371 690 l 1,11,-1
 371 476 l 1,6,-1
577 107 m 1,12,-1
 392 0 l 1,13,-1
 207 107 l 1,14,-1
 207 321 l 1,15,-1
 392 428 l 1,16,-1
 577 321 l 1,17,-1
 577 107 l 1,12,-1
766 677 m 1,18,-1
 761 686 l 1,19,-1
 608 596 l 1,20,-1
 468 679 l 1,21,-1
 463 670 l 1,22,-1
 601 589 l 1,23,-1
 601 450 l 1,24,-1
 611 450 l 1,25,-1
 611 587 l 1,26,-1
 766 677 l 1,18,-1
344 668 m 1,27,-1
 338 676 l 1,28,-1
 185 587 l 1,29,-1
 46 669 l 1,30,-1
 40 661 l 1,31,-1
 178 579 l 1,32,-1
 178 440 l 1,33,-1
 188 440 l 1,34,-1
 188 577 l 1,35,-1
 344 668 l 1,27,-1
549 295 m 1,36,-1
 544 304 l 1,37,-1
 391 214 l 1,38,-1
 251 297 l 1,39,-1
 246 288 l 1,40,-1
 384 207 l 1,41,-1
 384 67 l 1,42,-1
 394 67 l 1,43,-1
 394 205 l 1,44,-1
 549 295 l 1,36,-1
EndSplineSet
EndChar

StartChar: parenleft
Encoding: 40 40 11
Width: 804
Flags: W
LayerCount: 2
Back
Fore
SplineSet
185 363 m 1,0,-1
 -5 473 l 1,1,-1
 -5 693 l 1,2,-1
 185 803 l 1,3,-1
 376 693 l 1,4,-1
 376 473 l 1,5,-1
 185 363 l 1,0,-1
185 375 m 1,6,-1
 366 479 l 1,7,-1
 366 687 l 1,8,-1
 185 791 l 1,9,-1
 5 687 l 1,10,-1
 5 479 l 1,11,-1
 185 375 l 1,6,-1
392 -6 m 1,12,-1
 202 104 l 1,13,-1
 202 324 l 1,14,-1
 392 434 l 1,15,-1
 582 324 l 1,16,-1
 582 104 l 1,17,-1
 392 -6 l 1,12,-1
392 6 m 1,18,-1
 572 110 l 1,19,-1
 572 318 l 1,20,-1
 392 422 l 1,21,-1
 212 318 l 1,22,-1
 212 110 l 1,23,-1
 392 6 l 1,18,-1
606 366 m 1,24,-1
 416 476 l 1,25,-1
 416 696 l 1,26,-1
 606 806 l 1,27,-1
 796 696 l 1,28,-1
 796 476 l 1,29,-1
 606 366 l 1,24,-1
606 378 m 1,30,-1
 786 482 l 1,31,-1
 786 690 l 1,32,-1
 606 794 l 1,33,-1
 426 690 l 1,34,-1
 426 482 l 1,35,-1
 606 378 l 1,30,-1
180 450 m 1,36,-1
 180 584 l 1,37,-1
 31 668 l 1,38,-1
 35 676 l 1,39,-1
 190 589 l 1,40,-1
 190 450 l 1,41,-1
 180 450 l 1,36,-1
764 671 m 1,42,-1
 605 578 l 1,43,-1
 460 664 l 1,44,-1
 466 672 l 1,45,-1
 605 590 l 1,46,-1
 758 679 l 1,47,-1
 764 671 l 1,42,-1
536 297 m 1,48,-1
 398 215 l 1,49,-1
 398 78 l 1,50,-1
 388 78 l 1,51,-1
 388 221 l 1,52,-1
 530 305 l 1,53,-1
 536 297 l 1,48,-1
EndSplineSet
EndChar

StartChar: parenright
Encoding: 41 41 12
Width: 799
Flags: W
LayerCount: 2
Back
Fore
SplineSet
791 479 m 1,0,-1
 606 372 l 1,1,-1
 421 479 l 1,2,-1
 421 693 l 1,3,-1
 606 800 l 1,4,-1
 791 693 l 1,5,-1
 791 479 l 1,0,-1
371 476 m 1,6,-1
 185 369 l 1,7,-1
 0 476 l 1,8,-1
 0 690 l 1,9,-1
 185 797 l 1,10,-1
 371 690 l 1,11,-1
 371 476 l 1,6,-1
577 107 m 1,12,-1
 392 0 l 1,13,-1
 207 107 l 1,14,-1
 207 321 l 1,15,-1
 392 428 l 1,16,-1
 577 321 l 1,17,-1
 577 107 l 1,12,-1
764 671 m 1,18,-1
 758 679 l 1,19,-1
 605 590 l 1,20,-1
 466 672 l 1,21,-1
 460 664 l 1,22,-1
 605 578 l 1,23,-1
 764 671 l 1,18,-1
190 450 m 1,24,-1
 190 589 l 1,25,-1
 35 676 l 1,26,-1
 31 668 l 1,27,-1
 180 584 l 1,28,-1
 180 450 l 1,29,-1
 190 450 l 1,24,-1
536 297 m 1,30,-1
 530 305 l 1,31,-1
 388 221 l 1,32,-1
 388 78 l 1,33,-1
 398 78 l 1,34,-1
 398 215 l 1,35,-1
 536 297 l 1,30,-1
EndSplineSet
EndChar

StartChar: asterisk
Encoding: 42 42 13
Width: 799
Flags: W
LayerCount: 2
Back
Fore
SplineSet
791 479 m 1,0,-1
 606 372 l 1,1,-1
 421 479 l 1,2,-1
 421 693 l 1,3,-1
 606 800 l 1,4,-1
 791 693 l 1,5,-1
 791 479 l 1,0,-1
371 476 m 1,6,-1
 185 369 l 1,7,-1
 0 476 l 1,8,-1
 0 690 l 1,9,-1
 185 797 l 1,10,-1
 371 690 l 1,11,-1
 371 476 l 1,6,-1
577 107 m 1,12,-1
 392 0 l 1,13,-1
 207 107 l 1,14,-1
 207 321 l 1,15,-1
 392 428 l 1,16,-1
 577 321 l 1,17,-1
 577 107 l 1,12,-1
766 677 m 1,18,-1
 761 686 l 1,19,-1
 608 596 l 1,20,-1
 468 679 l 1,21,-1
 463 670 l 1,22,-1
 601 589 l 1,23,-1
 601 450 l 1,24,-1
 611 450 l 1,25,-1
 611 587 l 1,26,-1
 766 677 l 1,18,-1
344 668 m 1,27,-1
 338 676 l 1,28,-1
 185 587 l 1,29,-1
 46 669 l 1,30,-1
 40 661 l 1,31,-1
 178 579 l 1,32,-1
 178 440 l 1,33,-1
 188 440 l 1,34,-1
 188 577 l 1,35,-1
 344 668 l 1,27,-1
549 295 m 1,36,-1
 544 304 l 1,37,-1
 391 214 l 1,38,-1
 251 297 l 1,39,-1
 246 288 l 1,40,-1
 384 207 l 1,41,-1
 384 67 l 1,42,-1
 394 67 l 1,43,-1
 394 205 l 1,44,-1
 549 295 l 1,36,-1
EndSplineSet
EndChar

StartChar: plus
Encoding: 43 43 14
Width: 804
Flags: W
LayerCount: 2
Back
Fore
SplineSet
185 363 m 1,0,-1
 -5 473 l 1,1,-1
 -5 693 l 1,2,-1
 185 803 l 1,3,-1
 376 693 l 1,4,-1
 376 473 l 1,5,-1
 185 363 l 1,0,-1
185 375 m 1,6,-1
 366 479 l 1,7,-1
 366 687 l 1,8,-1
 185 791 l 1,9,-1
 5 687 l 1,10,-1
 5 479 l 1,11,-1
 185 375 l 1,6,-1
392 -6 m 1,12,-1
 202 104 l 1,13,-1
 202 324 l 1,14,-1
 392 434 l 1,15,-1
 582 324 l 1,16,-1
 582 104 l 1,17,-1
 392 -6 l 1,12,-1
392 6 m 1,18,-1
 572 110 l 1,19,-1
 572 318 l 1,20,-1
 392 422 l 1,21,-1
 212 318 l 1,22,-1
 212 110 l 1,23,-1
 392 6 l 1,18,-1
606 366 m 1,24,-1
 416 476 l 1,25,-1
 416 696 l 1,26,-1
 606 806 l 1,27,-1
 796 696 l 1,28,-1
 796 476 l 1,29,-1
 606 366 l 1,24,-1
606 378 m 1,30,-1
 786 482 l 1,31,-1
 786 690 l 1,32,-1
 606 794 l 1,33,-1
 426 690 l 1,34,-1
 426 482 l 1,35,-1
 606 378 l 1,30,-1
180 450 m 1,36,-1
 180 584 l 1,37,-1
 31 668 l 1,38,-1
 35 676 l 1,39,-1
 190 589 l 1,40,-1
 190 450 l 1,41,-1
 180 450 l 1,36,-1
764 671 m 1,42,-1
 605 578 l 1,43,-1
 460 664 l 1,44,-1
 466 672 l 1,45,-1
 605 590 l 1,46,-1
 758 679 l 1,47,-1
 764 671 l 1,42,-1
536 297 m 1,48,-1
 398 215 l 1,49,-1
 398 78 l 1,50,-1
 388 78 l 1,51,-1
 388 221 l 1,52,-1
 530 305 l 1,53,-1
 536 297 l 1,48,-1
EndSplineSet
EndChar

StartChar: comma
Encoding: 44 44 15
Width: 799
Flags: W
LayerCount: 2
Back
Fore
SplineSet
791 479 m 1,0,-1
 606 372 l 1,1,-1
 421 479 l 1,2,-1
 421 693 l 1,3,-1
 606 800 l 1,4,-1
 791 693 l 1,5,-1
 791 479 l 1,0,-1
371 476 m 1,6,-1
 185 369 l 1,7,-1
 0 476 l 1,8,-1
 0 690 l 1,9,-1
 185 797 l 1,10,-1
 371 690 l 1,11,-1
 371 476 l 1,6,-1
577 107 m 1,12,-1
 392 0 l 1,13,-1
 207 107 l 1,14,-1
 207 321 l 1,15,-1
 392 428 l 1,16,-1
 577 321 l 1,17,-1
 577 107 l 1,12,-1
764 671 m 1,18,-1
 758 679 l 1,19,-1
 605 590 l 1,20,-1
 466 672 l 1,21,-1
 460 664 l 1,22,-1
 605 578 l 1,23,-1
 764 671 l 1,18,-1
190 450 m 1,24,-1
 190 589 l 1,25,-1
 35 676 l 1,26,-1
 31 668 l 1,27,-1
 180 584 l 1,28,-1
 180 450 l 1,29,-1
 190 450 l 1,24,-1
536 297 m 1,30,-1
 530 305 l 1,31,-1
 388 221 l 1,32,-1
 388 78 l 1,33,-1
 398 78 l 1,34,-1
 398 215 l 1,35,-1
 536 297 l 1,30,-1
EndSplineSet
EndChar

StartChar: hyphen
Encoding: 173 173 16
AltUni2: 002212.ffffffff.0
Width: 799
Flags: W
LayerCount: 2
Back
Fore
SplineSet
791 479 m 1,0,-1
 606 372 l 1,1,-1
 421 479 l 1,2,-1
 421 693 l 1,3,-1
 606 800 l 1,4,-1
 791 693 l 1,5,-1
 791 479 l 1,0,-1
371 476 m 1,6,-1
 185 369 l 1,7,-1
 0 476 l 1,8,-1
 0 690 l 1,9,-1
 185 797 l 1,10,-1
 371 690 l 1,11,-1
 371 476 l 1,6,-1
577 107 m 1,12,-1
 392 0 l 1,13,-1
 207 107 l 1,14,-1
 207 321 l 1,15,-1
 392 428 l 1,16,-1
 577 321 l 1,17,-1
 577 107 l 1,12,-1
766 677 m 1,18,-1
 761 686 l 1,19,-1
 608 596 l 1,20,-1
 468 679 l 1,21,-1
 463 670 l 1,22,-1
 601 589 l 1,23,-1
 601 450 l 1,24,-1
 611 450 l 1,25,-1
 611 587 l 1,26,-1
 766 677 l 1,18,-1
344 668 m 1,27,-1
 338 676 l 1,28,-1
 185 587 l 1,29,-1
 46 669 l 1,30,-1
 40 661 l 1,31,-1
 178 579 l 1,32,-1
 178 440 l 1,33,-1
 188 440 l 1,34,-1
 188 577 l 1,35,-1
 344 668 l 1,27,-1
549 295 m 1,36,-1
 544 304 l 1,37,-1
 391 214 l 1,38,-1
 251 297 l 1,39,-1
 246 288 l 1,40,-1
 384 207 l 1,41,-1
 384 67 l 1,42,-1
 394 67 l 1,43,-1
 394 205 l 1,44,-1
 549 295 l 1,36,-1
EndSplineSet
EndChar

StartChar: zero
Encoding: 48 48 19
Width: 934
Flags: W
LayerCount: 2
Back
Fore
SplineSet
124 377 m 1,0,-1
 16 377 l 1,1,2
 49 414 49 414 54 423 c 0,3,4
 74 451 74 451 74 477 c 0,5,6
 74 488 74 488 70 500 c 1,7,-1
 113 513 l 1,8,9
 118 496 118 496 118 478 c 0,10,11
 118 449 118 449 106 422 c 1,12,-1
 174 422 l 1,13,-1
 165 336 l 1,14,-1
 308 336 l 1,15,-1
 308 291 l 1,16,-1
 160 291 l 1,17,-1
 148 189 l 2,18,19
 146 174 146 174 151 158 c 0,20,21
 156 137 156 137 169 137 c 0,22,23
 180 137 180 137 194 156 c 0,24,25
 201 165 201 165 201 182 c 0,26,27
 201 196 201 196 189 193 c 1,28,-1
 178 237 l 1,29,30
 187 239 187 239 195 239 c 0,31,32
 246 239 246 239 246 178 c 0,33,34
 246 140 246 140 221.5 119.5 c 128,-1,35
 197 99 197 99 157 99 c 0,36,37
 100 99 100 99 100 160 c 0,38,39
 100 176 100 176 104 196 c 2,40,-1
 114 291 l 1,41,-1
 -15 291 l 1,42,-1
 -15 336 l 1,43,-1
 119 336 l 1,44,-1
 124 377 l 1,0,-1
495 521 m 1,45,46
 501 503 501 503 501 485 c 0,47,48
 501 434 501 434 458 385 c 1,49,-1
 379 385 l 1,50,-1
 358 196 l 2,51,52
 356 190 356 190 356 185 c 0,53,54
 356 140 356 140 418 140 c 0,55,56
 470 140 470 140 496 175 c 0,57,58
 504 186 504 186 504 205 c 0,59,60
 504 219 504 219 497 224 c 0,61,62
 495 225 495 225 494 224 c 2,63,-1
 483 268 l 1,64,65
 491 270 491 270 498 270 c 0,66,67
 523 270 523 270 536 247 c 0,68,69
 548 228 548 228 548 202 c 0,70,71
 548 171 548 171 533 150 c 0,72,73
 494 95 494 95 421 95 c 0,74,75
 378 95 378 95 346 117 c 0,76,77
 311 141 311 141 311 183 c 0,78,79
 311 186 311 186 313 204 c 2,80,-1
 338 430 l 1,81,-1
 437 430 l 1,82,83
 456 456 456 456 456 485 c 0,84,85
 456 497 456 497 452 507 c 1,86,-1
 495 521 l 1,45,46
420 238 m 1,87,-1
 422 237 l 1,88,-1
 399 198 l 1,89,90
 375 212 375 212 375 236 c 0,91,92
 375 270 375 270 428 310 c 0,93,94
 455 329 455 329 508 366 c 0,95,96
 515 371 515 371 518 374 c 1,97,-1
 552 344 l 1,98,99
 540 332 540 332 508 311 c 0,100,101
 469 285 469 285 461 279 c 0,102,103
 426 252 426 252 420 238 c 1,87,-1
682 430 m 2,104,105
 685 443 685 443 685 450 c 0,106,107
 685 456 685 456 682.5 458 c 128,-1,108
 680 460 680 460 671 461 c 1,109,110
 678 438 678 438 677 421 c 1,111,-1
 682 430 l 2,104,105
741 411 m 1,112,-1
 776 282 l 1,113,-1
 796 282 l 1,114,115
 789 303 789 303 789 321 c 0,116,117
 789 342 789 342 798 360 c 1,118,-1
 839 343 l 1,119,120
 822 309 822 309 836 279 c 2,121,-1
 856 236 l 1,122,-1
 789 236 l 1,123,-1
 823 114 l 1,124,125
 820 100 820 100 826 84 c 0,126,127
 833 65 833 65 846 65 c 0,128,129
 873 65 873 65 873 104 c 0,130,131
 873 117 873 117 863 115 c 1,132,-1
 852 158 l 1,133,134
 862 161 862 161 870 161 c 0,135,136
 919 161 919 161 919 101 c 0,137,138
 919 20 919 20 830 20 c 0,139,140
 773 20 773 20 773 82 c 0,141,142
 773 96 773 96 777 113 c 1,143,-1
 743 236 l 1,144,-1
 648 236 l 1,145,-1
 591 103 l 1,146,-1
 550 121 l 1,147,-1
 605 256 l 1,148,-1
 605 281 l 1,149,-1
 617 282 l 1,150,-1
 654 366 l 1,151,-1
 591 366 l 1,152,153
 632 414 632 414 632 431 c 0,154,155
 632 441 632 441 626 457 c 2,156,-1
 610 500 l 1,157,158
 651 505 651 505 666 505 c 0,159,160
 729 505 729 505 729 451 c 0,161,162
 729 436 729 436 725 416 c 1,163,-1
 722 411 l 1,164,-1
 741 411 l 1,112,-1
668 282 m 1,165,-1
 729 282 l 1,166,-1
 706 366 l 1,167,-1
 704 366 l 1,168,-1
 668 282 l 1,165,-1
EndSplineSet
EndChar

StartChar: five
Encoding: 53 53 24
Width: 804
Flags: W
LayerCount: 2
Back
Fore
SplineSet
185 363 m 1,0,-1
 -5 473 l 1,1,-1
 -5 693 l 1,2,-1
 185 803 l 1,3,-1
 376 693 l 1,4,-1
 376 473 l 1,5,-1
 185 363 l 1,0,-1
185 375 m 1,6,-1
 366 479 l 1,7,-1
 366 687 l 1,8,-1
 185 791 l 1,9,-1
 5 687 l 1,10,-1
 5 479 l 1,11,-1
 185 375 l 1,6,-1
392 -6 m 1,12,-1
 202 104 l 1,13,-1
 202 324 l 1,14,-1
 392 434 l 1,15,-1
 582 324 l 1,16,-1
 582 104 l 1,17,-1
 392 -6 l 1,12,-1
392 6 m 1,18,-1
 572 110 l 1,19,-1
 572 318 l 1,20,-1
 392 422 l 1,21,-1
 212 318 l 1,22,-1
 212 110 l 1,23,-1
 392 6 l 1,18,-1
606 366 m 1,24,-1
 416 476 l 1,25,-1
 416 696 l 1,26,-1
 606 806 l 1,27,-1
 796 696 l 1,28,-1
 796 476 l 1,29,-1
 606 366 l 1,24,-1
606 378 m 1,30,-1
 786 482 l 1,31,-1
 786 690 l 1,32,-1
 606 794 l 1,33,-1
 426 690 l 1,34,-1
 426 482 l 1,35,-1
 606 378 l 1,30,-1
180 450 m 1,36,-1
 180 584 l 1,37,-1
 31 668 l 1,38,-1
 35 676 l 1,39,-1
 190 589 l 1,40,-1
 190 450 l 1,41,-1
 180 450 l 1,36,-1
764 671 m 1,42,-1
 605 578 l 1,43,-1
 460 664 l 1,44,-1
 466 672 l 1,45,-1
 605 590 l 1,46,-1
 758 679 l 1,47,-1
 764 671 l 1,42,-1
536 297 m 1,48,-1
 398 215 l 1,49,-1
 398 78 l 1,50,-1
 388 78 l 1,51,-1
 388 221 l 1,52,-1
 530 305 l 1,53,-1
 536 297 l 1,48,-1
EndSplineSet
EndChar

StartChar: six
Encoding: 54 54 25
Width: 799
Flags: W
LayerCount: 2
Back
Fore
SplineSet
791 479 m 1,0,-1
 606 372 l 1,1,-1
 421 479 l 1,2,-1
 421 693 l 1,3,-1
 606 800 l 1,4,-1
 791 693 l 1,5,-1
 791 479 l 1,0,-1
371 476 m 1,6,-1
 185 369 l 1,7,-1
 0 476 l 1,8,-1
 0 690 l 1,9,-1
 185 797 l 1,10,-1
 371 690 l 1,11,-1
 371 476 l 1,6,-1
577 107 m 1,12,-1
 392 0 l 1,13,-1
 207 107 l 1,14,-1
 207 321 l 1,15,-1
 392 428 l 1,16,-1
 577 321 l 1,17,-1
 577 107 l 1,12,-1
764 671 m 1,18,-1
 758 679 l 1,19,-1
 605 590 l 1,20,-1
 466 672 l 1,21,-1
 460 664 l 1,22,-1
 605 578 l 1,23,-1
 764 671 l 1,18,-1
190 450 m 1,24,-1
 190 589 l 1,25,-1
 35 676 l 1,26,-1
 31 668 l 1,27,-1
 180 584 l 1,28,-1
 180 450 l 1,29,-1
 190 450 l 1,24,-1
536 297 m 1,30,-1
 530 305 l 1,31,-1
 388 221 l 1,32,-1
 388 78 l 1,33,-1
 398 78 l 1,34,-1
 398 215 l 1,35,-1
 536 297 l 1,30,-1
EndSplineSet
EndChar

StartChar: seven
Encoding: 55 55 26
Width: 799
Flags: W
LayerCount: 2
Back
Fore
SplineSet
791 479 m 1,0,-1
 606 372 l 1,1,-1
 421 479 l 1,2,-1
 421 693 l 1,3,-1
 606 800 l 1,4,-1
 791 693 l 1,5,-1
 791 479 l 1,0,-1
371 476 m 1,6,-1
 185 369 l 1,7,-1
 0 476 l 1,8,-1
 0 690 l 1,9,-1
 185 797 l 1,10,-1
 371 690 l 1,11,-1
 371 476 l 1,6,-1
577 107 m 1,12,-1
 392 0 l 1,13,-1
 207 107 l 1,14,-1
 207 321 l 1,15,-1
 392 428 l 1,16,-1
 577 321 l 1,17,-1
 577 107 l 1,12,-1
766 677 m 1,18,-1
 761 686 l 1,19,-1
 608 596 l 1,20,-1
 468 679 l 1,21,-1
 463 670 l 1,22,-1
 601 589 l 1,23,-1
 601 450 l 1,24,-1
 611 450 l 1,25,-1
 611 587 l 1,26,-1
 766 677 l 1,18,-1
344 668 m 1,27,-1
 338 676 l 1,28,-1
 185 587 l 1,29,-1
 46 669 l 1,30,-1
 40 661 l 1,31,-1
 178 579 l 1,32,-1
 178 440 l 1,33,-1
 188 440 l 1,34,-1
 188 577 l 1,35,-1
 344 668 l 1,27,-1
549 295 m 1,36,-1
 544 304 l 1,37,-1
 391 214 l 1,38,-1
 251 297 l 1,39,-1
 246 288 l 1,40,-1
 384 207 l 1,41,-1
 384 67 l 1,42,-1
 394 67 l 1,43,-1
 394 205 l 1,44,-1
 549 295 l 1,36,-1
EndSplineSet
EndChar

StartChar: eight
Encoding: 56 56 27
Width: 804
Flags: W
LayerCount: 2
Back
Fore
SplineSet
185 363 m 1,0,-1
 -5 473 l 1,1,-1
 -5 693 l 1,2,-1
 185 803 l 1,3,-1
 376 693 l 1,4,-1
 376 473 l 1,5,-1
 185 363 l 1,0,-1
185 375 m 1,6,-1
 366 479 l 1,7,-1
 366 687 l 1,8,-1
 185 791 l 1,9,-1
 5 687 l 1,10,-1
 5 479 l 1,11,-1
 185 375 l 1,6,-1
392 -6 m 1,12,-1
 202 104 l 1,13,-1
 202 324 l 1,14,-1
 392 434 l 1,15,-1
 582 324 l 1,16,-1
 582 104 l 1,17,-1
 392 -6 l 1,12,-1
392 6 m 1,18,-1
 572 110 l 1,19,-1
 572 318 l 1,20,-1
 392 422 l 1,21,-1
 212 318 l 1,22,-1
 212 110 l 1,23,-1
 392 6 l 1,18,-1
606 366 m 1,24,-1
 416 476 l 1,25,-1
 416 696 l 1,26,-1
 606 806 l 1,27,-1
 796 696 l 1,28,-1
 796 476 l 1,29,-1
 606 366 l 1,24,-1
606 378 m 1,30,-1
 786 482 l 1,31,-1
 786 690 l 1,32,-1
 606 794 l 1,33,-1
 426 690 l 1,34,-1
 426 482 l 1,35,-1
 606 378 l 1,30,-1
180 450 m 1,36,-1
 180 584 l 1,37,-1
 31 668 l 1,38,-1
 35 676 l 1,39,-1
 190 589 l 1,40,-1
 190 450 l 1,41,-1
 180 450 l 1,36,-1
764 671 m 1,42,-1
 605 578 l 1,43,-1
 460 664 l 1,44,-1
 466 672 l 1,45,-1
 605 590 l 1,46,-1
 758 679 l 1,47,-1
 764 671 l 1,42,-1
536 297 m 1,48,-1
 398 215 l 1,49,-1
 398 78 l 1,50,-1
 388 78 l 1,51,-1
 388 221 l 1,52,-1
 530 305 l 1,53,-1
 536 297 l 1,48,-1
EndSplineSet
EndChar

StartChar: nine
Encoding: 57 57 28
Width: 799
Flags: W
LayerCount: 2
Back
Fore
SplineSet
791 479 m 1,0,-1
 606 372 l 1,1,-1
 421 479 l 1,2,-1
 421 693 l 1,3,-1
 606 800 l 1,4,-1
 791 693 l 1,5,-1
 791 479 l 1,0,-1
371 476 m 1,6,-1
 185 369 l 1,7,-1
 0 476 l 1,8,-1
 0 690 l 1,9,-1
 185 797 l 1,10,-1
 371 690 l 1,11,-1
 371 476 l 1,6,-1
577 107 m 1,12,-1
 392 0 l 1,13,-1
 207 107 l 1,14,-1
 207 321 l 1,15,-1
 392 428 l 1,16,-1
 577 321 l 1,17,-1
 577 107 l 1,12,-1
764 671 m 1,18,-1
 758 679 l 1,19,-1
 605 590 l 1,20,-1
 466 672 l 1,21,-1
 460 664 l 1,22,-1
 605 578 l 1,23,-1
 764 671 l 1,18,-1
190 450 m 1,24,-1
 190 589 l 1,25,-1
 35 676 l 1,26,-1
 31 668 l 1,27,-1
 180 584 l 1,28,-1
 180 450 l 1,29,-1
 190 450 l 1,24,-1
536 297 m 1,30,-1
 530 305 l 1,31,-1
 388 221 l 1,32,-1
 388 78 l 1,33,-1
 398 78 l 1,34,-1
 398 215 l 1,35,-1
 536 297 l 1,30,-1
EndSplineSet
EndChar

StartChar: colon
Encoding: 58 58 29
Width: 799
Flags: W
LayerCount: 2
Back
Fore
SplineSet
791 479 m 1,0,-1
 606 372 l 1,1,-1
 421 479 l 1,2,-1
 421 693 l 1,3,-1
 606 800 l 1,4,-1
 791 693 l 1,5,-1
 791 479 l 1,0,-1
371 476 m 1,6,-1
 185 369 l 1,7,-1
 0 476 l 1,8,-1
 0 690 l 1,9,-1
 185 797 l 1,10,-1
 371 690 l 1,11,-1
 371 476 l 1,6,-1
577 107 m 1,12,-1
 392 0 l 1,13,-1
 207 107 l 1,14,-1
 207 321 l 1,15,-1
 392 428 l 1,16,-1
 577 321 l 1,17,-1
 577 107 l 1,12,-1
766 677 m 1,18,-1
 761 686 l 1,19,-1
 608 596 l 1,20,-1
 468 679 l 1,21,-1
 463 670 l 1,22,-1
 601 589 l 1,23,-1
 601 450 l 1,24,-1
 611 450 l 1,25,-1
 611 587 l 1,26,-1
 766 677 l 1,18,-1
344 668 m 1,27,-1
 338 676 l 1,28,-1
 185 587 l 1,29,-1
 46 669 l 1,30,-1
 40 661 l 1,31,-1
 178 579 l 1,32,-1
 178 440 l 1,33,-1
 188 440 l 1,34,-1
 188 577 l 1,35,-1
 344 668 l 1,27,-1
549 295 m 1,36,-1
 544 304 l 1,37,-1
 391 214 l 1,38,-1
 251 297 l 1,39,-1
 246 288 l 1,40,-1
 384 207 l 1,41,-1
 384 67 l 1,42,-1
 394 67 l 1,43,-1
 394 205 l 1,44,-1
 549 295 l 1,36,-1
EndSplineSet
EndChar

StartChar: semicolon
Encoding: 59 59 30
Width: 804
Flags: W
LayerCount: 2
Back
Fore
SplineSet
185 363 m 1,0,-1
 -5 473 l 1,1,-1
 -5 693 l 1,2,-1
 185 803 l 1,3,-1
 376 693 l 1,4,-1
 376 473 l 1,5,-1
 185 363 l 1,0,-1
185 375 m 1,6,-1
 366 479 l 1,7,-1
 366 687 l 1,8,-1
 185 791 l 1,9,-1
 5 687 l 1,10,-1
 5 479 l 1,11,-1
 185 375 l 1,6,-1
392 -6 m 1,12,-1
 202 104 l 1,13,-1
 202 324 l 1,14,-1
 392 434 l 1,15,-1
 582 324 l 1,16,-1
 582 104 l 1,17,-1
 392 -6 l 1,12,-1
392 6 m 1,18,-1
 572 110 l 1,19,-1
 572 318 l 1,20,-1
 392 422 l 1,21,-1
 212 318 l 1,22,-1
 212 110 l 1,23,-1
 392 6 l 1,18,-1
606 366 m 1,24,-1
 416 476 l 1,25,-1
 416 696 l 1,26,-1
 606 806 l 1,27,-1
 796 696 l 1,28,-1
 796 476 l 1,29,-1
 606 366 l 1,24,-1
606 378 m 1,30,-1
 786 482 l 1,31,-1
 786 690 l 1,32,-1
 606 794 l 1,33,-1
 426 690 l 1,34,-1
 426 482 l 1,35,-1
 606 378 l 1,30,-1
180 450 m 1,36,-1
 180 584 l 1,37,-1
 31 668 l 1,38,-1
 35 676 l 1,39,-1
 190 589 l 1,40,-1
 190 450 l 1,41,-1
 180 450 l 1,36,-1
764 671 m 1,42,-1
 605 578 l 1,43,-1
 460 664 l 1,44,-1
 466 672 l 1,45,-1
 605 590 l 1,46,-1
 758 679 l 1,47,-1
 764 671 l 1,42,-1
536 297 m 1,48,-1
 398 215 l 1,49,-1
 398 78 l 1,50,-1
 388 78 l 1,51,-1
 388 221 l 1,52,-1
 530 305 l 1,53,-1
 536 297 l 1,48,-1
EndSplineSet
EndChar

StartChar: less
Encoding: 60 60 31
Width: 799
Flags: W
LayerCount: 2
Back
Fore
SplineSet
791 479 m 1,0,-1
 606 372 l 1,1,-1
 421 479 l 1,2,-1
 421 693 l 1,3,-1
 606 800 l 1,4,-1
 791 693 l 1,5,-1
 791 479 l 1,0,-1
371 476 m 1,6,-1
 185 369 l 1,7,-1
 0 476 l 1,8,-1
 0 690 l 1,9,-1
 185 797 l 1,10,-1
 371 690 l 1,11,-1
 371 476 l 1,6,-1
577 107 m 1,12,-1
 392 0 l 1,13,-1
 207 107 l 1,14,-1
 207 321 l 1,15,-1
 392 428 l 1,16,-1
 577 321 l 1,17,-1
 577 107 l 1,12,-1
764 671 m 1,18,-1
 758 679 l 1,19,-1
 605 590 l 1,20,-1
 466 672 l 1,21,-1
 460 664 l 1,22,-1
 605 578 l 1,23,-1
 764 671 l 1,18,-1
190 450 m 1,24,-1
 190 589 l 1,25,-1
 35 676 l 1,26,-1
 31 668 l 1,27,-1
 180 584 l 1,28,-1
 180 450 l 1,29,-1
 190 450 l 1,24,-1
536 297 m 1,30,-1
 530 305 l 1,31,-1
 388 221 l 1,32,-1
 388 78 l 1,33,-1
 398 78 l 1,34,-1
 398 215 l 1,35,-1
 536 297 l 1,30,-1
EndSplineSet
EndChar

StartChar: equal
Encoding: 61 61 32
Width: 799
Flags: W
LayerCount: 2
Back
Fore
SplineSet
791 479 m 1,0,-1
 606 372 l 1,1,-1
 421 479 l 1,2,-1
 421 693 l 1,3,-1
 606 800 l 1,4,-1
 791 693 l 1,5,-1
 791 479 l 1,0,-1
371 476 m 1,6,-1
 185 369 l 1,7,-1
 0 476 l 1,8,-1
 0 690 l 1,9,-1
 185 797 l 1,10,-1
 371 690 l 1,11,-1
 371 476 l 1,6,-1
577 107 m 1,12,-1
 392 0 l 1,13,-1
 207 107 l 1,14,-1
 207 321 l 1,15,-1
 392 428 l 1,16,-1
 577 321 l 1,17,-1
 577 107 l 1,12,-1
766 677 m 1,18,-1
 761 686 l 1,19,-1
 608 596 l 1,20,-1
 468 679 l 1,21,-1
 463 670 l 1,22,-1
 601 589 l 1,23,-1
 601 450 l 1,24,-1
 611 450 l 1,25,-1
 611 587 l 1,26,-1
 766 677 l 1,18,-1
344 668 m 1,27,-1
 338 676 l 1,28,-1
 185 587 l 1,29,-1
 46 669 l 1,30,-1
 40 661 l 1,31,-1
 178 579 l 1,32,-1
 178 440 l 1,33,-1
 188 440 l 1,34,-1
 188 577 l 1,35,-1
 344 668 l 1,27,-1
549 295 m 1,36,-1
 544 304 l 1,37,-1
 391 214 l 1,38,-1
 251 297 l 1,39,-1
 246 288 l 1,40,-1
 384 207 l 1,41,-1
 384 67 l 1,42,-1
 394 67 l 1,43,-1
 394 205 l 1,44,-1
 549 295 l 1,36,-1
EndSplineSet
EndChar

StartChar: question
Encoding: 63 63 34
Width: 578
Flags: W
LayerCount: 2
Back
Fore
SplineSet
190 419 m 1,0,1
 190 449 190 449 211 472.5 c 128,-1,2
 232 496 232 496 262 496 c 2,3,-1
 432 496 l 1,4,5
 437 506 437 506 450 523 c 1,6,-1
 368 701 l 1,7,-1
 153 701 l 1,8,9
 135 656 135 656 86 656 c 0,10,11
 56 656 56 656 35 677 c 128,-1,12
 14 698 14 698 14 728 c 2,13,-1
 14 799 l 1,14,-1
 429 799 l 1,15,-1
 565 501 l 2,16,17
 572 486 572 486 572 471 c 0,18,19
 572 441 572 441 551 420 c 128,-1,20
 530 399 530 399 500 399 c 2,21,-1
 330 399 l 1,22,23
 322 377 322 377 311 367 c 1,24,-1
 366 240 l 1,25,26
 390 234 390 234 404.5 214 c 128,-1,27
 419 194 419 194 419 169 c 0,28,29
 419 139 419 139 398 118 c 128,-1,30
 377 97 377 97 347 97 c 256,31,32
 317 97 317 97 296 118 c 128,-1,33
 275 139 275 139 275 169 c 0,34,35
 275 185 275 185 281 200 c 1,36,37
 281 197 281 197 190 419 c 1,0,1
EndSplineSet
EndChar

StartChar: at
Encoding: 64 64 35
Width: 767
Flags: W
LayerCount: 2
Back
Fore
SplineSet
399 595 m 1,0,-1
 488 557 l 1,1,-1
 321 165 l 1,2,-1
 232 202 l 1,3,-1
 399 595 l 1,0,-1
595 589 m 1,4,-1
 692 589 l 1,5,-1
 692 163 l 1,6,-1
 595 163 l 1,7,-1
 595 589 l 1,4,-1
566 779 m 1,8,-1
 566 682 l 1,9,-1
 140 682 l 1,10,-1
 140 779 l 1,11,-1
 566 779 l 1,8,-1
99 456 m 1,12,-1
 10 418 l 1,13,-1
 176 26 l 1,14,-1
 265 64 l 1,15,-1
 99 456 l 1,12,-1
561 142 m 256,16,17
 561 172 561 172 540 193 c 128,-1,18
 519 214 519 214 489 214 c 256,19,20
 459 214 459 214 438 193 c 128,-1,21
 417 172 417 172 417 142 c 256,22,23
 417 112 417 112 438 91 c 128,-1,24
 459 70 459 70 489 70 c 256,25,26
 519 70 519 70 540 91 c 128,-1,27
 561 112 561 112 561 142 c 256,16,17
EndSplineSet
EndChar

StartChar: A
Encoding: 65 65 36
Width: 708
Flags: W
LayerCount: 2
Back
Fore
SplineSet
181 661 m 1,0,-1
 181 322 l 1,1,-1
 219 322 l 1,2,-1
 287 481 l 1,3,4
 308 513 308 513 347 513 c 2,5,-1
 403 513 l 1,6,-1
 342 655 l 1,7,8
 290 655 290 655 272 703 c 1,9,-1
 223 703 l 1,10,11
 213 674 213 674 181 661 c 1,0,-1
445 416 m 1,12,-1
 414 416 l 1,13,14
 399 371 399 371 345 371 c 1,15,-1
 279 218 l 2,16,17
 261 176 261 176 218 176 c 2,18,-1
 181 176 l 1,19,-1
 181 0 l 1,20,-1
 84 0 l 1,21,-1
 84 800 l 1,22,-1
 340 800 l 2,23,24
 376 800 376 800 396 773 c 1,25,-1
 688 97 l 2,26,27
 693 85 693 85 693 72 c 0,28,29
 693 42 693 42 672 21 c 128,-1,30
 651 0 651 0 621 0 c 256,31,32
 591 0 591 0 569.5 21 c 128,-1,33
 548 42 548 42 548 72 c 256,34,35
 548 102 548 102 570 123 c 1,36,-1
 445 416 l 1,12,-1
218 176 m 1024,37,-1
EndSplineSet
EndChar

StartChar: B
Encoding: 66 66 37
Width: 697
Flags: W
LayerCount: 2
Back
Fore
SplineSet
693 72 m 0,0,1
 693 42 693 42 671 21 c 128,-1,2
 649 0 649 0 619 0 c 2,3,-1
 155 0 l 2,4,5
 125 0 125 0 104.5 20 c 128,-1,6
 84 40 84 40 84 70 c 2,7,-1
 84 800 l 1,8,-1
 565 800 l 2,9,10
 595 800 595 800 616 779 c 128,-1,11
 637 758 637 758 637 728 c 0,12,13
 637 714 637 714 630 698 c 2,14,-1
 529 470 l 1,15,-1
 686 102 l 2,16,17
 693 86 693 86 693 72 c 0,0,1
571 124 m 1,18,-1
 465 370 l 1,19,20
 415 370 415 370 397 416 c 1,21,-1
 275 416 l 1,22,-1
 275 513 l 1,23,-1
 444 513 l 1,24,-1
 515 676 l 1,25,26
 508 683 508 683 497 703 c 1,27,-1
 221 703 l 1,28,29
 210 673 210 673 181 661 c 1,30,-1
 181 139 l 1,31,32
 213 128 213 128 224 97 c 1,33,-1
 553 97 l 1,34,35
 560 113 560 113 571 124 c 1,18,-1
EndSplineSet
EndChar

StartChar: C
Encoding: 67 67 38
Width: 697
Flags: W
LayerCount: 2
Back
Fore
SplineSet
155 0 m 2,0,1
 125 0 125 0 104.5 20 c 128,-1,2
 84 40 84 40 84 70 c 2,3,-1
 84 800 l 1,4,-1
 565 800 l 2,5,6
 595 800 595 800 616 779 c 128,-1,7
 637 758 637 758 637 728 c 0,8,9
 637 714 637 714 630 698 c 2,10,-1
 529 470 l 1,11,12
 519 467 519 467 509 467 c 0,13,14
 486 467 486 467 467 478 c 0,15,16
 445 492 445 492 444 513 c 1,17,-1
 515 676 l 1,18,19
 502 689 502 689 497 703 c 1,20,-1
 222 703 l 1,21,22
 210 673 210 673 181 661 c 1,23,-1
 181 139 l 1,24,25
 213 128 213 128 224 97 c 1,26,-1
 553 97 l 1,27,28
 571 144 571 144 621 144 c 0,29,30
 651 144 651 144 672 123 c 128,-1,31
 693 102 693 102 693 72 c 256,32,33
 693 42 693 42 670.5 21 c 128,-1,34
 648 0 648 0 618 0 c 2,35,-1
 155 0 l 2,0,1
EndSplineSet
EndChar

StartChar: D
Encoding: 68 68 39
Width: 697
Flags: W
LayerCount: 2
Back
Fore
SplineSet
565 800 m 2,0,1
 595 800 595 800 616 779 c 128,-1,2
 637 758 637 758 637 728 c 0,3,4
 637 719 637 719 630 698 c 0,5,6
 594 545 594 545 513 344 c 0,7,8
 413 97 413 97 316 0 c 1,9,-1
 155 0 l 2,10,11
 125 0 125 0 104.5 20 c 128,-1,12
 84 40 84 40 84 70 c 2,13,-1
 84 800 l 1,14,-1
 565 800 l 2,0,1
181 661 m 1,15,-1
 181 139 l 1,16,17
 213 128 213 128 224 97 c 1,18,-1
 269 97 l 1,19,20
 456 405 456 405 515 676 c 1,21,22
 502 689 502 689 497 703 c 1,23,-1
 223 703 l 1,24,25
 212 674 212 674 181 661 c 1,15,-1
EndSplineSet
EndChar

StartChar: E
Encoding: 69 69 40
Width: 679
Flags: W
LayerCount: 2
Back
Fore
SplineSet
8 96 m 1,0,-1
 166 470 l 1,1,-1
 66 698 l 2,2,3
 59 714 59 714 59 728 c 0,4,5
 59 758 59 758 80 779 c 128,-1,6
 101 800 101 800 131 800 c 2,7,-1
 611 800 l 1,8,-1
 611 703 l 1,9,-1
 199 703 l 1,10,11
 194 689 194 689 181 676 c 1,12,-1
 251 513 l 1,13,-1
 421 513 l 1,14,-1
 421 416 l 1,15,-1
 298 416 l 1,16,17
 280 370 280 370 231 370 c 1,18,-1
 125 124 l 1,19,20
 138 112 138 112 144 96 c 1,21,-1
 471 96 l 1,22,23
 490 142 490 142 539 142 c 0,24,25
 569 142 569 142 590.5 121 c 128,-1,26
 612 100 612 100 612 70 c 256,27,28
 612 40 612 40 590.5 20 c 128,-1,29
 569 0 569 0 539 0 c 2,30,-1
 75 0 l 2,31,32
 45 0 45 0 24 21 c 128,-1,33
 3 42 3 42 3 72 c 0,34,35
 3 86 3 86 8 99 c 1,36,-1
 8 96 l 1,0,-1
EndSplineSet
EndChar

StartChar: F
Encoding: 70 70 41
Width: 670
Flags: W
LayerCount: 2
Back
Fore
SplineSet
155 470 m 1,0,-1
 55 698 l 2,1,2
 48 714 48 714 48 728 c 0,3,4
 48 758 48 758 69 779 c 128,-1,5
 90 800 90 800 120 800 c 2,6,-1
 601 800 l 1,7,-1
 601 703 l 1,8,-1
 188 703 l 1,9,10
 183 689 183 689 170 676 c 1,11,-1
 241 513 l 1,12,-1
 410 513 l 1,13,-1
 410 416 l 1,14,-1
 287 416 l 1,15,16
 270 370 270 370 220 370 c 1,17,-1
 115 123 l 1,18,19
 137 102 137 102 137 72 c 256,20,21
 137 42 137 42 115.5 21 c 128,-1,22
 94 0 94 0 64 0 c 256,23,24
 34 0 34 0 13 21 c 128,-1,25
 -8 42 -8 42 -8 72 c 0,26,27
 -8 90 -8 90 1 106 c 2,28,-1
 155 470 l 1,0,-1
EndSplineSet
EndChar

StartChar: G
Encoding: 71 71 42
Width: 760
Flags: W
LayerCount: 2
Back
Fore
SplineSet
84 800 m 1,0,-1
 84 70 l 2,1,2
 84 40 84 40 104.5 20 c 128,-1,3
 125 0 125 0 155 0 c 2,4,-1
 618 0 l 2,5,6
 648 0 648 0 670.5 21 c 128,-1,7
 693 42 693 42 693 72 c 0,8,9
 693 85 693 85 687 99 c 2,10,-1
 510 513 l 1,11,-1
 275 513 l 1,12,-1
 275 416 l 1,13,-1
 397 416 l 1,14,15
 415 370 415 370 465 370 c 1,16,-1
 571 124 l 1,17,18
 559 113 559 113 553 97 c 1,19,-1
 224 97 l 1,20,21
 213 128 213 128 181 139 c 1,22,-1
 181 661 l 1,23,24
 211 673 211 673 222 703 c 1,25,-1
 693 703 l 1,26,-1
 693 800 l 1,27,-1
 84 800 l 1,0,-1
EndSplineSet
EndChar

StartChar: H
Encoding: 72 72 43
Width: 627
Flags: W
LayerCount: 2
Back
Fore
SplineSet
469 513 m 1,0,-1
 469 790 l 2,1,2
 469 827 469 827 515 827 c 0,3,4
 566 827 566 827 566 790 c 2,5,-1
 566 139 l 1,6,7
 611 121 611 121 611 72 c 0,8,9
 611 42 611 42 590 21 c 128,-1,10
 569 0 569 0 539 0 c 2,11,-1
 469 0 l 1,12,-1
 469 370 l 1,13,14
 417 366 417 366 397 416 c 1,15,-1
 180 416 l 1,16,-1
 180 10 l 2,17,18
 180 -27 180 -27 130 -27 c 0,19,20
 84 -27 84 -27 84 10 c 2,21,-1
 84 800 l 1,22,-1
 154 800 l 2,23,24
 184 800 184 800 205 779 c 128,-1,25
 226 758 226 758 226 728 c 0,26,27
 226 680 226 680 180 661 c 1,28,-1
 180 513 l 1,29,-1
 469 513 l 1,0,-1
EndSplineSet
EndChar

StartChar: I
Encoding: 73 73 44
Width: 287
Flags: W
LayerCount: 2
Back
Fore
SplineSet
181 661 m 1,0,1
 226 679 226 679 226 728 c 0,2,3
 226 758 226 758 205 779 c 128,-1,4
 184 800 184 800 154 800 c 2,5,-1
 84 800 l 1,6,-1
 84 10 l 2,7,8
 84 -27 84 -27 130 -27 c 0,9,10
 181 -27 181 -27 181 10 c 2,11,-1
 181 661 l 1,0,1
EndSplineSet
EndChar

StartChar: J
Encoding: 74 74 45
Width: 750
Flags: W
LayerCount: 2
Back
Fore
SplineSet
157 124 m 1,0,1
 169 113 169 113 175 97 c 1,2,-1
 504 97 l 1,3,4
 516 129 516 129 547 140 c 1,5,-1
 547 800 l 1,6,-1
 617 800 l 2,7,8
 647 800 647 800 668 779 c 128,-1,9
 689 758 689 758 689 728 c 0,10,11
 689 679 689 679 644 661 c 1,12,-1
 644 77 l 2,13,14
 644 46 644 46 623.5 23 c 128,-1,15
 603 0 603 0 573 0 c 2,16,-1
 111 0 l 2,17,18
 80 0 80 0 58 20.5 c 128,-1,19
 36 41 36 41 36 72 c 0,20,21
 36 87 36 87 41 99 c 2,22,-1
 152 359 l 1,23,24
 174 384 174 384 206 384 c 0,25,26
 236 384 236 384 257 363 c 128,-1,27
 278 342 278 342 278 312 c 256,28,29
 278 282 278 282 257 261 c 128,-1,30
 236 240 236 240 206 240 c 1,31,-1
 157 124 l 1,0,1
EndSplineSet
EndChar

StartChar: K
Encoding: 75 75 46
Width: 703
Flags: W
LayerCount: 2
Back
Fore
SplineSet
465 370 m 1,0,1
 415 370 415 370 397 416 c 1,2,-1
 181 416 l 1,3,-1
 181 10 l 2,4,5
 181 -27 181 -27 130 -27 c 0,6,7
 84 -27 84 -27 84 10 c 2,8,-1
 84 800 l 1,9,-1
 154 800 l 2,10,11
 184 800 184 800 205 779 c 128,-1,12
 226 758 226 758 226 728 c 0,13,14
 226 679 226 679 181 661 c 1,15,-1
 181 513 l 1,16,-1
 444 513 l 1,17,-1
 547 776 l 2,18,19
 556 800 556 800 586 800 c 0,20,21
 606 800 606 800 625 787.5 c 128,-1,22
 644 775 644 775 644 756 c 0,23,24
 644 750 644 750 642 745 c 2,25,-1
 529 470 l 1,26,-1
 686 100 l 2,27,28
 693 84 693 84 693 72 c 0,29,30
 693 42 693 42 672 21 c 128,-1,31
 651 0 651 0 621 0 c 256,32,33
 591 0 591 0 569.5 21 c 128,-1,34
 548 42 548 42 548 72 c 0,35,36
 548 103 548 103 571 124 c 1,37,-1
 465 370 l 1,0,1
EndSplineSet
EndChar

StartChar: L
Encoding: 76 76 47
Width: 724
Flags: W
LayerCount: 2
Back
Fore
SplineSet
587 124 m 1,0,1
 575 113 575 113 569 97 c 1,2,-1
 240 97 l 1,3,4
 228 129 228 129 197 140 c 1,5,-1
 197 800 l 1,6,-1
 127 800 l 2,7,8
 97 800 97 800 76 779 c 128,-1,9
 55 758 55 758 55 728 c 0,10,11
 55 679 55 679 100 661 c 1,12,-1
 100 77 l 2,13,14
 100 46 100 46 120.5 23 c 128,-1,15
 141 0 141 0 171 0 c 2,16,-1
 634 0 l 2,17,18
 664 0 664 0 686.5 21 c 128,-1,19
 709 42 709 42 709 72 c 0,20,21
 709 85 709 85 703 99 c 2,22,-1
 592 359 l 1,23,24
 570 384 570 384 538 384 c 0,25,26
 508 384 508 384 487 363 c 128,-1,27
 466 342 466 342 466 312 c 256,28,29
 466 282 466 282 487 261 c 128,-1,30
 508 240 508 240 538 240 c 1,31,-1
 587 124 l 1,0,1
EndSplineSet
EndChar

StartChar: M
Encoding: 77 77 48
Width: 713
Flags: W
LayerCount: 2
Back
Fore
SplineSet
531 247 m 1,0,1
 481 247 481 247 463 293 c 1,2,-1
 581 554 l 1,3,4
 574 560 574 560 562 580 c 1,5,-1
 457 580 l 1,6,-1
 409 473 l 1,7,8
 416 458 416 458 416 442 c 0,9,10
 416 412 416 412 395 391 c 128,-1,11
 374 370 374 370 344 370 c 256,12,13
 314 370 314 370 293 391 c 128,-1,14
 272 412 272 412 272 442 c 0,15,16
 272 467 272 467 286.5 487 c 128,-1,17
 301 507 301 507 324 513 c 1,18,-1
 395 676 l 1,19,20
 382 689 382 689 377 703 c 1,21,-1
 222 703 l 1,22,23
 211 673 211 673 181 661 c 1,24,-1
 181 0 l 1,25,-1
 84 0 l 1,26,-1
 84 800 l 1,27,-1
 445 800 l 2,28,29
 475 800 475 800 496 779 c 128,-1,30
 517 758 517 758 517 728 c 0,31,32
 517 715 517 715 500 677 c 1,33,-1
 631 677 l 2,34,35
 661 677 661 677 682 656 c 128,-1,36
 703 635 703 635 703 605 c 0,37,38
 703 594 703 594 695 576 c 2,39,-1
 590 342 l 1,40,-1
 708 72 l 1,41,42
 708 42 708 42 687 21 c 128,-1,43
 666 0 666 0 636 0 c 256,44,45
 606 0 606 0 584.5 21 c 128,-1,46
 563 42 563 42 563 72 c 0,47,48
 563 103 563 103 585 124 c 1,49,-1
 531 247 l 1,0,1
EndSplineSet
EndChar

StartChar: N
Encoding: 78 78 49
Width: 880
Flags: W
LayerCount: 2
Back
Fore
SplineSet
181 661 m 1,0,1
 211 673 211 673 222 703 c 1,2,-1
 377 703 l 1,3,4
 382 689 382 689 395 676 c 1,5,-1
 324 513 l 1,6,7
 301 507 301 507 286.5 487 c 128,-1,8
 272 467 272 467 272 442 c 0,9,10
 272 415 272 415 290.5 394.5 c 128,-1,11
 309 374 309 374 336 370 c 1,12,-1
 448 118 l 1,13,-1
 414 39 l 1,14,15
 421 19 421 19 448 5 c 0,16,17
 472 -7 472 -7 495 -7 c 1,18,-1
 814 698 l 2,19,20
 820 711 820 711 820 728 c 0,21,22
 820 757 820 757 798.5 778.5 c 128,-1,23
 777 800 777 800 748 800 c 0,24,25
 718 800 718 800 697 779 c 128,-1,26
 676 758 676 758 676 728 c 0,27,28
 676 699 676 699 699 676 c 1,29,-1
 508 251 l 1,30,-1
 409 473 l 1,31,-1
 500 677 l 2,32,33
 517 715 517 715 517 728 c 0,34,35
 517 758 517 758 496 779 c 128,-1,36
 475 800 475 800 445 800 c 2,37,-1
 84 800 l 1,38,-1
 84 0 l 1,39,-1
 181 0 l 2,40,41
 211 0 211 0 232 21 c 128,-1,42
 253 42 253 42 253 72 c 256,43,44
 253 102 253 102 232 123 c 128,-1,45
 211 144 211 144 181 144 c 1,46,-1
 181 661 l 1,0,1
EndSplineSet
EndChar

StartChar: O
Encoding: 79 79 50
Width: 860
Flags: W
LayerCount: 2
Back
Fore
SplineSet
125 124 m 1,0,1
 137 114 137 114 143 97 c 1,2,-1
 385 97 l 1,3,4
 404 146 404 146 456 144 c 1,5,-1
 680 678 l 1,6,7
 667 690 667 690 662 702 c 1,8,-1
 420 702 l 1,9,10
 402 657 402 657 351 657 c 1,11,-1
 125 124 l 1,0,1
729 800 m 2,12,13
 760 800 760 800 779 779.5 c 128,-1,14
 798 759 798 759 798 728 c 0,15,16
 798 709 798 709 790 690 c 2,17,-1
 522 53 l 2,18,19
 516 30 516 30 496 15 c 128,-1,20
 476 0 476 0 452 0 c 2,21,-1
 76 0 l 2,22,23
 45 0 45 0 25.5 21 c 128,-1,24
 6 42 6 42 6 73 c 0,25,26
 6 91 6 91 12 105 c 2,27,-1
 291 767 l 1,28,29
 311 800 311 800 347 800 c 2,30,-1
 729 800 l 2,12,13
EndSplineSet
EndChar

StartChar: P
Encoding: 80 80 51
Width: 631
Flags: W
LayerCount: 2
Back
Fore
SplineSet
499 800 m 2,0,1
 529 800 529 800 550 779 c 128,-1,2
 571 758 571 758 571 728 c 0,3,4
 571 714 571 714 564 698 c 2,5,-1
 463 470 l 1,6,7
 468 460 468 460 468 445 c 0,8,9
 468 415 468 415 447 394 c 128,-1,10
 426 373 426 373 396 373 c 0,11,12
 344 373 344 373 327 416 c 1,13,-1
 209 416 l 1,14,-1
 209 513 l 1,15,-1
 378 513 l 1,16,-1
 449 676 l 1,17,18
 442 683 442 683 431 703 c 1,19,-1
 157 703 l 1,20,21
 146 674 146 674 115 661 c 1,22,-1
 115 0 l 1,23,-1
 18 0 l 1,24,-1
 18 800 l 1,25,-1
 499 800 l 2,0,1
EndSplineSet
EndChar

StartChar: Q
Encoding: 81 81 52
Width: 860
Flags: W
LayerCount: 2
Back
Fore
SplineSet
790 690 m 2,0,-1
 632 313 l 1,1,-1
 738 72 l 1,2,3
 738 42 738 42 717 21 c 128,-1,4
 696 0 696 0 666 0 c 256,5,6
 636 0 636 0 614.5 21 c 128,-1,7
 593 42 593 42 593 72 c 0,8,9
 593 103 593 103 615 124 c 1,10,-1
 583 197 l 1,11,-1
 522 53 l 2,12,13
 516 30 516 30 496 15 c 128,-1,14
 476 0 476 0 452 0 c 2,15,-1
 76 0 l 2,16,17
 45 0 45 0 25.5 21 c 128,-1,18
 6 42 6 42 6 73 c 0,19,20
 6 91 6 91 12 105 c 2,21,-1
 291 767 l 1,22,23
 311 800 311 800 347 800 c 2,24,-1
 729 800 l 2,25,26
 760 800 760 800 779 779.5 c 128,-1,27
 798 759 798 759 798 728 c 0,28,29
 798 709 798 709 790 690 c 2,0,-1
680 678 m 1,30,31
 667 690 667 690 662 702 c 1,32,-1
 420 702 l 1,33,34
 402 657 402 657 351 657 c 1,35,-1
 125 124 l 1,36,37
 137 114 137 114 143 97 c 1,38,-1
 385 97 l 1,39,40
 404 146 404 146 456 144 c 1,41,-1
 485 214 l 1,42,-1
 343 214 l 1,43,-1
 384 311 l 1,44,-1
 526 311 l 1,45,-1
 680 678 l 1,30,31
EndSplineSet
EndChar

StartChar: R
Encoding: 82 82 53
Width: 697
Flags: W
LayerCount: 2
Back
Fore
SplineSet
465 370 m 1,0,1
 415 370 415 370 397 416 c 1,2,-1
 275 416 l 1,3,-1
 275 513 l 1,4,-1
 444 513 l 1,5,-1
 515 676 l 1,6,7
 502 689 502 689 497 703 c 1,8,-1
 222 703 l 1,9,10
 211 673 211 673 181 661 c 1,11,-1
 181 0 l 1,12,-1
 84 0 l 1,13,-1
 84 800 l 1,14,-1
 565 800 l 2,15,16
 595 800 595 800 616 779 c 128,-1,17
 637 758 637 758 637 728 c 0,18,19
 637 714 637 714 630 698 c 2,20,-1
 529 470 l 1,21,-1
 685 103 l 2,22,23
 693 84 693 84 693 72 c 0,24,25
 693 42 693 42 672 21 c 128,-1,26
 651 0 651 0 621 0 c 256,27,28
 591 0 591 0 569.5 21 c 128,-1,29
 548 42 548 42 548 72 c 0,30,31
 548 101 548 101 570 123 c 1,32,-1
 465 370 l 1,0,1
EndSplineSet
EndChar

StartChar: S
Encoding: 83 83 54
Width: 675
Flags: W
LayerCount: 2
Back
Fore
SplineSet
7 0 m 1,0,-1
 7 70 l 2,1,2
 7 100 7 100 28 121 c 128,-1,3
 49 142 49 142 79 142 c 0,4,5
 128 142 128 142 146 97 c 1,6,-1
 318 97 l 1,7,8
 335 144 335 144 388 144 c 1,9,-1
 493 391 l 1,10,11
 479 404 479 404 474 418 c 1,12,-1
 128 418 l 2,13,14
 98 418 98 418 77 439 c 128,-1,15
 56 460 56 460 56 490 c 0,16,17
 56 505 56 505 64 523 c 2,18,-1
 168 761 l 2,19,20
 185 800 185 800 232 800 c 2,21,-1
 610 800 l 1,22,-1
 610 728 l 2,23,24
 610 698 610 698 589 677 c 128,-1,25
 568 656 568 656 538 656 c 0,26,27
 489 656 489 656 471 701 c 1,28,-1
 299 701 l 1,29,30
 279 656 279 656 229 656 c 1,31,-1
 178 539 l 1,32,33
 190 528 190 528 196 515 c 1,34,-1
 542 515 l 2,35,36
 572 515 572 515 593 494 c 128,-1,37
 614 473 614 473 614 443 c 0,38,39
 614 428 614 428 608 414 c 2,40,-1
 453 50 l 2,41,42
 432 0 432 0 390 0 c 2,43,-1
 7 0 l 1,0,-1
EndSplineSet
EndChar

StartChar: T
Encoding: 84 84 55
Width: 697
Flags: W
LayerCount: 2
Back
Fore
SplineSet
38 703 m 1,0,-1
 38 800 l 1,1,-1
 565 800 l 2,2,3
 595 800 595 800 616 779 c 128,-1,4
 637 758 637 758 637 728 c 0,5,6
 637 714 637 714 630 698 c 2,7,-1
 529 470 l 1,8,9
 519 467 519 467 509 467 c 0,10,11
 486 467 486 467 467 478 c 0,12,13
 445 492 445 492 444 513 c 1,14,-1
 515 676 l 1,15,16
 502 689 502 689 497 703 c 1,17,-1
 340 703 l 1,18,-1
 340 0 l 1,19,-1
 270 0 l 2,20,21
 240 0 240 0 219 21 c 128,-1,22
 198 42 198 42 198 72 c 0,23,24
 198 121 198 121 243 139 c 1,25,-1
 243 703 l 1,26,-1
 38 703 l 1,0,-1
EndSplineSet
EndChar

StartChar: U
Encoding: 85 85 56
Width: 708
Flags: W
LayerCount: 2
Back
Fore
SplineSet
84 70 m 2,0,1
 84 40 84 40 104.5 20 c 128,-1,2
 125 0 125 0 155 0 c 2,3,-1
 618 0 l 2,4,5
 648 0 648 0 670.5 21 c 128,-1,6
 693 42 693 42 693 72 c 0,7,8
 693 85 693 85 687 99 c 2,9,-1
 510 513 l 1,10,-1
 510 800 l 1,11,-1
 397 800 l 1,12,-1
 397 416 l 1,13,14
 415 370 415 370 465 370 c 1,15,-1
 571 124 l 1,16,17
 559 113 559 113 553 97 c 1,18,-1
 224 97 l 1,19,20
 213 128 213 128 181 139 c 1,21,-1
 181 662 l 1,22,23
 212 662 212 662 232 680 c 128,-1,24
 252 698 252 698 252 728 c 256,25,26
 252 758 252 758 231 779 c 128,-1,27
 210 800 210 800 180 800 c 2,28,-1
 84 800 l 1,29,-1
 84 70 l 2,0,1
EndSplineSet
EndChar

StartChar: V
Encoding: 86 86 57
Width: 695
Flags: W
LayerCount: 2
Back
Fore
SplineSet
269 97 m 1,0,-1
 224 97 l 1,1,2
 213 128 213 128 181 139 c 1,3,-1
 181 661 l 1,4,5
 226 679 226 679 226 728 c 0,6,7
 226 758 226 758 205 779 c 128,-1,8
 184 800 184 800 154 800 c 2,9,-1
 84 800 l 1,10,-1
 84 70 l 2,11,12
 84 40 84 40 104.5 20 c 128,-1,13
 125 0 125 0 155 0 c 2,14,-1
 316 0 l 1,15,16
 412 96 412 96 513 349 c 0,17,18
 587 535 587 535 631 708 c 0,19,20
 634 720 634 720 634 730 c 0,21,22
 634 760 634 760 613 781 c 128,-1,23
 592 802 592 802 562 802 c 256,24,25
 532 802 532 802 511 781 c 128,-1,26
 490 760 490 760 490 730 c 0,27,28
 490 696 490 696 515 675 c 1,29,30
 457 407 457 407 269 97 c 1,0,-1
EndSplineSet
EndChar

StartChar: W
Encoding: 87 87 58
Width: 917
Flags: W
LayerCount: 2
Back
Fore
SplineSet
321 70 m 2,0,1
 321 40 321 40 341.5 20 c 128,-1,2
 362 0 362 0 392 0 c 2,3,-1
 538 0 l 1,4,5
 636 98 636 98 744 359 c 0,6,7
 836 581 836 581 853 708 c 0,8,9
 856 718 856 718 856 730 c 0,10,11
 856 760 856 760 835 781 c 128,-1,12
 814 802 814 802 784 802 c 256,13,14
 754 802 754 802 733 781 c 128,-1,15
 712 760 712 760 712 730 c 0,16,17
 712 696 712 696 738 675 c 1,18,19
 679 407 679 407 491 97 c 1,20,-1
 461 97 l 1,21,22
 450 128 450 128 418 139 c 1,23,-1
 418 486 l 1,24,-1
 321 486 l 1,25,-1
 321 333 l 1,26,27
 262 206 262 206 196 97 c 1,28,-1
 166 97 l 1,29,30
 155 128 155 128 123 139 c 1,31,-1
 123 661 l 1,32,33
 168 679 168 679 168 728 c 0,34,35
 168 758 168 758 147 779 c 128,-1,36
 126 800 126 800 96 800 c 2,37,-1
 26 800 l 1,38,-1
 26 70 l 2,39,40
 26 40 26 40 46.5 20 c 128,-1,41
 67 0 67 0 97 0 c 2,42,-1
 243 0 l 1,43,44
 280 37 280 37 321 104 c 1,45,-1
 321 70 l 2,0,1
EndSplineSet
EndChar

StartChar: X
Encoding: 88 88 59
Width: 645
Flags: W
LayerCount: 2
Back
Fore
SplineSet
299 446 m 1,0,-1
 299 476 l 1,1,-1
 178 754 l 2,2,3
 158 800 158 800 111 800 c 0,4,5
 81 800 81 800 60 779 c 128,-1,6
 39 758 39 758 39 728 c 256,7,8
 39 698 39 698 60 677 c 128,-1,9
 81 656 81 656 111 656 c 2,10,-1
 114 656 l 1,11,-1
 185 489 l 1,12,-1
 185 432 l 2,13,14
 185 391 185 391 227 371 c 2,15,-1
 287 343 l 1,16,-1
 142 0 l 1,17,-1
 247 0 l 1,18,-1
 376 305 l 1,19,-1
 393 298 l 1,20,21
 393 244 393 244 437 228 c 1,22,-1
 437 178 l 1,23,-1
 497 42 l 2,24,25
 516 0 516 0 563 0 c 0,26,27
 593 0 593 0 614 21 c 128,-1,28
 635 42 635 42 635 72 c 256,29,30
 635 102 635 102 614 123 c 128,-1,31
 593 144 593 144 563 144 c 2,32,-1
 557 144 l 1,33,-1
 534 193 l 1,34,-1
 534 296 l 2,35,36
 534 335 534 335 503 356 c 1,37,-1
 414 396 l 1,38,-1
 587 800 l 1,39,-1
 481 800 l 1,40,-1
 326 434 l 1,41,-1
 299 446 l 1,0,-1
185 432 m 1024,42,-1
EndSplineSet
EndChar

StartChar: Y
Encoding: 89 89 60
Width: 645
Flags: W
LayerCount: 2
Back
Fore
SplineSet
587 800 m 1,0,-1
 481 800 l 1,1,-1
 326 434 l 1,2,-1
 299 446 l 1,3,-1
 299 476 l 1,4,-1
 178 754 l 2,5,6
 158 800 158 800 111 800 c 0,7,8
 81 800 81 800 60 779 c 128,-1,9
 39 758 39 758 39 728 c 256,10,11
 39 698 39 698 60 677 c 128,-1,12
 81 656 81 656 111 656 c 2,13,-1
 114 656 l 1,14,-1
 185 489 l 1,15,-1
 185 432 l 2,16,17
 185 391 185 391 227 371 c 2,18,-1
 287 343 l 1,19,-1
 142 0 l 1,20,-1
 247 0 l 1,21,-1
 587 800 l 1,0,-1
185 432 m 1024,22,-1
EndSplineSet
EndChar

StartChar: Z
Encoding: 90 90 61
Width: 660
Flags: W
LayerCount: 2
Back
Fore
SplineSet
163 185 m 1,0,1
 168 197 168 197 168 209 c 1,2,-1
 568 680 l 2,3,4
 587 702 587 702 587 728 c 0,5,6
 587 755 587 755 570 775 c 128,-1,7
 553 795 553 795 526 799 c 1,8,-1
 2 799 l 1,9,-1
 2 729 l 2,10,11
 2 699 2 699 23 678 c 128,-1,12
 44 657 44 657 74 657 c 0,13,14
 123 657 123 657 141 702 c 1,15,-1
 460 702 l 1,16,-1
 107 285 l 1,17,18
 74 289 74 289 49 267 c 128,-1,19
 24 245 24 245 24 213 c 0,20,21
 24 162 24 162 73 145 c 1,22,-1
 134 0 l 1,23,-1
 603 0 l 1,24,-1
 603 70 l 2,25,26
 603 100 603 100 582 121.5 c 128,-1,27
 561 143 561 143 531 143 c 0,28,29
 482 143 482 143 464 98 c 1,30,-1
 198 98 l 1,31,-1
 163 185 l 1,0,1
EndSplineSet
EndChar

StartChar: a
Encoding: 97 97 62
Width: 693
Flags: W
LayerCount: 2
Back
Fore
SplineSet
170 466 m 2,0,1
 191 514 191 514 237 514 c 2,2,-1
 546 513 l 2,3,4
 576 513 576 513 596.5 493 c 128,-1,5
 617 473 617 473 617 443 c 2,6,-1
 617 0 l 1,7,-1
 519 0 l 1,8,-1
 519 374 l 1,9,10
 488 385 488 385 477 416 c 1,11,-1
 305 416 l 1,12,13
 289 372 289 372 235 372 c 1,14,-1
 129 123 l 1,15,16
 144 109 144 109 149 96 c 1,17,-1
 426 97 l 1,18,-1
 426 0 l 1,19,-1
 80 0 l 2,20,21
 50 0 50 0 29 21 c 128,-1,22
 8 42 8 42 8 72 c 0,23,24
 8 87 8 87 15 103 c 2,25,-1
 170 466 l 2,0,1
EndSplineSet
EndChar

StartChar: b
Encoding: 98 98 63
Width: 582
Flags: W
LayerCount: 2
Back
Fore
SplineSet
85 0 m 2,0,1
 55 0 55 0 35 20 c 128,-1,2
 15 40 15 40 15 70 c 2,3,-1
 15 800 l 1,4,-1
 85 800 l 2,5,6
 115 800 115 800 136 779 c 128,-1,7
 157 758 157 758 157 728 c 0,8,9
 157 679 157 679 112 661 c 1,10,-1
 112 139 l 1,11,12
 144 128 144 128 155 97 c 1,13,-1
 484 97 l 1,14,15
 489 111 489 111 502 124 c 1,16,-1
 397 370 l 1,17,18
 345 370 345 370 328 416 c 1,19,-1
 206 416 l 1,20,-1
 206 513 l 1,21,-1
 395 514 l 2,22,23
 440 514 440 514 460 468 c 2,24,-1
 617 101 l 2,25,26
 623 87 623 87 623 72 c 0,27,28
 623 42 623 42 604 21 c 128,-1,29
 585 0 585 0 555 0 c 2,30,-1
 85 0 l 2,0,1
EndSplineSet
EndChar

StartChar: c
Encoding: 99 99 64
Width: 672
Flags: W
LayerCount: 2
Back
Fore
SplineSet
126 124 m 1,0,1
 139 112 139 112 144 97 c 1,2,-1
 422 97 l 1,3,-1
 422 0 l 1,4,-1
 76 0 l 2,5,6
 46 0 46 0 25 21 c 128,-1,7
 4 42 4 42 4 72 c 0,8,9
 4 85 4 85 12 104 c 2,10,-1
 166 468 l 2,11,12
 185 513 185 513 233 513 c 2,13,-1
 612 513 l 1,14,-1
 612 443 l 2,15,16
 612 413 612 413 591 392 c 128,-1,17
 570 371 570 371 540 371 c 0,18,19
 491 371 491 371 473 416 c 1,20,-1
 301 415 l 1,21,22
 284 370 284 370 230 370 c 1,23,-1
 126 124 l 1,0,1
EndSplineSet
EndChar

StartChar: d
Encoding: 100 100 65
Width: 700
Flags: W
LayerCount: 2
Back
Fore
SplineSet
432 513 m 1,0,-1
 432 416 l 1,1,-1
 311 416 l 1,2,3
 293 370 293 370 240 370 c 1,4,-1
 136 124 l 1,5,6
 150 112 150 112 155 97 c 1,7,-1
 483 97 l 1,8,9
 495 128 495 128 526 139 c 1,10,-1
 526 661 l 1,11,12
 481 679 481 679 481 728 c 0,13,14
 481 758 481 758 502.5 779 c 128,-1,15
 524 800 524 800 554 800 c 2,16,-1
 623 800 l 1,17,-1
 623 70 l 2,18,19
 623 40 623 40 603 20 c 128,-1,20
 583 0 583 0 553 0 c 2,21,-1
 87 0 l 2,22,23
 57 0 57 0 36 21 c 128,-1,24
 15 42 15 42 15 72 c 0,25,26
 15 91 15 91 24 107 c 2,27,-1
 177 470 l 2,28,29
 195 513 195 513 244 513 c 2,30,-1
 432 513 l 1,0,-1
EndSplineSet
EndChar

StartChar: e
Encoding: 101 101 66
Width: 674
Flags: W
LayerCount: 2
Back
Fore
SplineSet
511 390 m 1,0,1
 497 403 497 403 492 416 c 1,2,-1
 322 416 l 1,3,4
 304 369 304 369 252 369 c 1,5,-1
 147 124 l 1,6,7
 159 112 159 112 165 97 c 1,8,-1
 304 97 l 1,9,10
 322 142 322 142 370 142 c 0,11,12
 400 142 400 142 421.5 121 c 128,-1,13
 443 100 443 100 443 70 c 2,14,-1
 443 0 l 1,15,-1
 97 0 l 2,16,17
 67 0 67 0 46 21 c 128,-1,18
 25 42 25 42 25 72 c 0,19,20
 25 86 25 86 33 105 c 2,21,-1
 187 467 l 2,22,23
 207 513 207 513 255 513 c 2,24,-1
 561 513 l 2,25,26
 591 513 591 513 612 492 c 128,-1,27
 633 471 633 471 633 441 c 0,28,29
 633 428 633 428 626 412 c 2,30,-1
 541 213 l 1,31,-1
 278 213 l 1,32,-1
 320 310 l 1,33,-1
 476 310 l 1,34,-1
 511 390 l 1,0,1
EndSplineSet
EndChar

StartChar: f
Encoding: 102 102 67
Width: 481
Flags: W
LayerCount: 2
Back
Fore
SplineSet
139 420 m 1,0,-1
 41 420 l 1,1,-1
 41 323 l 1,2,-1
 117 323 l 1,3,-1
 117 139 l 1,4,5
 72 121 72 121 72 72 c 0,6,7
 72 42 72 42 93.5 21 c 128,-1,8
 115 0 115 0 145 0 c 2,9,-1
 215 0 l 1,10,-1
 215 291 l 1,11,12
 263 308 263 308 263 358 c 0,13,14
 263 389 263 389 239 411 c 1,15,-1
 344 656 l 1,16,17
 374 656 374 656 397 677 c 128,-1,18
 420 698 420 698 420 728 c 256,19,20
 420 758 420 758 399 779 c 128,-1,21
 378 800 378 800 348 800 c 0,22,23
 300 800 300 800 281 756 c 2,24,-1
 139 420 l 1,0,-1
EndSplineSet
EndChar

StartChar: g
Encoding: 103 103 68
Width: 728
Flags: W
LayerCount: 2
Back
Fore
SplineSet
554 54 m 1,0,-1
 554 374 l 1,1,2
 523 385 523 385 512 416 c 1,3,-1
 339 416 l 1,4,5
 322 371 322 371 270 371 c 1,6,-1
 165 124 l 1,7,8
 177 112 177 112 183 97 c 1,9,-1
 461 97 l 1,10,-1
 461 0 l 1,11,-1
 116 0 l 2,12,13
 86 0 86 0 64.5 21 c 128,-1,14
 43 42 43 42 43 72 c 0,15,16
 43 88 43 88 49 102 c 2,17,-1
 206 470 l 2,18,19
 224 513 224 513 273 513 c 2,20,-1
 581 513 l 2,21,22
 611 513 611 513 631.5 493 c 128,-1,23
 652 473 652 473 652 443 c 2,24,-1
 652 33 l 1,25,-1
 498 -329 l 2,26,27
 479 -374 479 -374 431 -374 c 0,28,29
 401 -374 401 -374 380 -353 c 128,-1,30
 359 -332 359 -332 359 -302 c 0,31,32
 359 -271 359 -271 381 -250.5 c 128,-1,33
 403 -230 403 -230 434 -230 c 1,34,-1
 554 54 l 1,0,-1
EndSplineSet
EndChar

StartChar: h
Encoding: 104 104 69
Width: 657
Flags: W
LayerCount: 2
Back
Fore
SplineSet
394 371 m 1,0,1
 339 371 339 371 322 416 c 1,2,-1
 109 416 l 1,3,-1
 109 140 l 1,4,5
 156 122 156 122 156 73 c 0,6,7
 156 43 156 43 135 22 c 128,-1,8
 114 1 114 1 84 1 c 2,9,-1
 12 1 l 1,10,-1
 12 800 l 1,11,-1
 82 800 l 2,12,13
 112 800 112 800 133 779 c 128,-1,14
 154 758 154 758 154 728 c 0,15,16
 154 679 154 679 109 661 c 1,17,-1
 109 513 l 1,18,-1
 392 513 l 2,19,20
 440 513 440 513 459 467 c 2,21,-1
 614 101 l 2,22,23
 621 84 621 84 621 72 c 0,24,25
 621 42 621 42 600 21 c 128,-1,26
 579 0 579 0 549 0 c 256,27,28
 519 0 519 0 497.5 21 c 128,-1,29
 476 42 476 42 476 72 c 0,30,31
 476 103 476 103 499 125 c 1,32,-1
 394 371 l 1,0,1
EndSplineSet
EndChar

StartChar: i
Encoding: 105 105 70
Width: 254
Flags: W
LayerCount: 2
Back
Fore
SplineSet
57 0 m 1,0,-1
 128 0 l 2,1,2
 158 0 158 0 179 21 c 128,-1,3
 200 42 200 42 200 72 c 0,4,5
 200 122 200 122 154 139 c 1,6,-1
 154 513 l 1,7,-1
 57 513 l 1,8,-1
 57 0 l 1,0,-1
36 637 m 256,9,10
 36 667 36 667 57 688 c 128,-1,11
 78 709 78 709 108 709 c 256,12,13
 138 709 138 709 159 688 c 128,-1,14
 180 667 180 667 180 637 c 256,15,16
 180 607 180 607 159 586 c 128,-1,17
 138 565 138 565 108 565 c 256,18,19
 78 565 78 565 57 586 c 128,-1,20
 36 607 36 607 36 637 c 256,9,10
EndSplineSet
EndChar

StartChar: j
Encoding: 106 106 71
Width: 387
Flags: W
LayerCount: 2
Back
Fore
SplineSet
183 -32 m 1,0,1
 174 -15 174 -15 174 2 c 0,2,3
 174 33 174 33 197 55 c 1,4,-1
 198 513 l 1,5,-1
 295 513 l 1,6,-1
 295 -9 l 1,7,-1
 160 -333 l 2,8,9
 143 -374 143 -374 94 -374 c 0,10,11
 64 -374 64 -374 43 -353 c 128,-1,12
 22 -332 22 -332 22 -302 c 0,13,14
 22 -270 22 -270 43 -250 c 128,-1,15
 64 -230 64 -230 96 -231 c 1,16,-1
 183 -32 l 1,0,1
177 637 m 256,17,18
 177 667 177 667 198 688 c 128,-1,19
 219 709 219 709 249 709 c 256,20,21
 279 709 279 709 300 688 c 128,-1,22
 321 667 321 667 321 637 c 256,23,24
 321 607 321 607 300 586 c 128,-1,25
 279 565 279 565 249 565 c 256,26,27
 219 565 219 565 198 586 c 128,-1,28
 177 607 177 607 177 637 c 256,17,18
EndSplineSet
EndChar

StartChar: k
Encoding: 107 107 72
Width: 535
Flags: W
LayerCount: 2
Back
Fore
SplineSet
343 215 m 1,0,-1
 435 -2 l 1,1,2
 466 -2 466 -2 487 13 c 0,3,4
 512 30 512 30 512 59 c 1,5,-1
 415 289 l 1,6,-1
 467 410 l 2,7,8
 475 429 475 429 475 441 c 0,9,10
 475 471 475 471 454 492 c 128,-1,11
 433 513 433 513 403 513 c 256,12,13
 373 513 373 513 351.5 492 c 128,-1,14
 330 471 330 471 330 441 c 0,15,16
 330 408 330 408 353 388 c 1,17,-1
 320 311 l 1,18,-1
 181 311 l 1,19,-1
 181 661 l 1,20,21
 226 679 226 679 226 728 c 0,22,23
 226 758 226 758 205 779 c 128,-1,24
 184 800 184 800 154 800 c 2,25,-1
 84 800 l 1,26,-1
 84 1 l 1,27,-1
 156 1 l 2,28,29
 186 1 186 1 207 22 c 128,-1,30
 228 43 228 43 228 73 c 0,31,32
 228 122 228 122 181 140 c 1,33,-1
 181 215 l 1,34,-1
 343 215 l 1,0,-1
EndSplineSet
EndChar

StartChar: l
Encoding: 108 108 73
Width: 296
Flags: W
LayerCount: 2
Back
Fore
SplineSet
188 1 m 1,0,-1
 117 1 l 2,1,2
 87 1 87 1 66 22 c 128,-1,3
 45 43 45 43 45 73 c 0,4,5
 45 122 45 122 91 140 c 1,6,-1
 91 800 l 1,7,-1
 161 800 l 2,8,9
 191 800 191 800 212 779 c 128,-1,10
 233 758 233 758 233 728 c 0,11,12
 233 679 233 679 188 661 c 1,13,-1
 188 1 l 1,0,-1
EndSplineSet
EndChar

StartChar: m
Encoding: 109 109 74
Width: 772
Flags: W
LayerCount: 2
Back
Fore
SplineSet
602 370 m 1,0,1
 550 370 550 370 532 416 c 1,2,-1
 402 416 l 1,3,-1
 536 102 l 2,4,5
 543 86 543 86 543 72 c 0,6,7
 543 42 543 42 522 21 c 128,-1,8
 501 0 501 0 471 0 c 256,9,10
 441 0 441 0 419.5 21 c 128,-1,11
 398 42 398 42 398 72 c 0,12,13
 398 103 398 103 420 124 c 1,14,-1
 316 371 l 1,15,16
 264 371 264 371 247 416 c 1,17,-1
 181 416 l 1,18,-1
 181 139 l 1,19,20
 228 122 228 122 228 72 c 0,21,22
 228 42 228 42 207 21 c 128,-1,23
 186 0 186 0 156 0 c 2,24,-1
 83 0 l 1,25,-1
 83 513 l 1,26,-1
 600 513 l 2,27,28
 646 513 646 513 665 469 c 2,29,-1
 821 102 l 2,30,31
 828 86 828 86 828 72 c 0,32,33
 828 42 828 42 807 21 c 128,-1,34
 786 0 786 0 756 0 c 256,35,36
 726 0 726 0 704.5 21 c 128,-1,37
 683 42 683 42 683 72 c 0,38,39
 683 104 683 104 705 125 c 1,40,-1
 602 370 l 1,0,1
EndSplineSet
EndChar

StartChar: n
Encoding: 110 110 75
Width: 577
Flags: W
LayerCount: 2
Back
Fore
SplineSet
317 370 m 1,0,1
 263 370 263 370 247 416 c 1,2,-1
 182 416 l 1,3,-1
 182 139 l 1,4,5
 228 122 228 122 228 72 c 0,6,7
 228 42 228 42 207 21 c 128,-1,8
 186 0 186 0 156 0 c 2,9,-1
 83 0 l 1,10,-1
 83 513 l 1,11,-1
 318 513 l 2,12,13
 362 513 362 513 382 466 c 2,14,-1
 537 101 l 2,15,16
 543 87 543 87 543 72 c 0,17,18
 543 42 543 42 522 21 c 128,-1,19
 501 0 501 0 471 0 c 256,20,21
 441 0 441 0 420 21 c 128,-1,22
 399 42 399 42 399 72 c 0,23,24
 399 104 399 104 421 125 c 1,25,-1
 317 370 l 1,0,1
EndSplineSet
EndChar

StartChar: o
Encoding: 111 111 76
Width: 715
Flags: W
LayerCount: 2
Back
Fore
SplineSet
161 124 m 1,0,1
 172 114 172 114 179 97 c 1,2,-1
 351 97 l 1,3,4
 369 146 369 146 421 144 c 1,5,-1
 525 390 l 1,6,7
 512 403 512 403 507 415 c 1,8,-1
 335 415 l 1,9,10
 317 370 317 370 266 370 c 1,11,-1
 161 124 l 1,0,1
574 513 m 2,12,13
 606 513 606 513 624.5 492.5 c 128,-1,14
 643 472 643 472 643 440 c 0,15,16
 643 422 643 422 635 403 c 2,17,-1
 488 53 l 1,18,19
 472 0 472 0 417 0 c 2,20,-1
 111 0 l 2,21,22
 80 0 80 0 60.5 21 c 128,-1,23
 41 42 41 42 41 73 c 0,24,25
 41 88 41 88 48 105 c 2,26,-1
 207 480 l 1,27,28
 227 513 227 513 262 513 c 2,29,-1
 574 513 l 2,12,13
EndSplineSet
EndChar

StartChar: p
Encoding: 112 112 77
Width: 875
Flags: W
LayerCount: 2
Back
Fore
SplineSet
246 49 m 1,0,-1
 246 443 l 2,1,2
 246 473 246 473 266 493 c 128,-1,3
 286 513 286 513 316 513 c 2,4,-1
 626 513 l 2,5,6
 673 513 673 513 693 466 c 2,7,-1
 848 101 l 2,8,9
 854 87 854 87 854 72 c 0,10,11
 854 42 854 42 833 21 c 128,-1,12
 812 0 812 0 782 0 c 2,13,-1
 437 0 l 1,14,-1
 437 97 l 1,15,-1
 714 97 l 1,16,17
 719 111 719 111 732 124 c 1,18,-1
 628 370 l 1,19,20
 573 370 573 370 557 416 c 1,21,-1
 385 416 l 1,22,23
 374 385 374 385 343 374 c 1,24,-1
 343 33 l 1,25,-1
 190 -337 l 2,26,27
 173 -379 173 -379 123 -379 c 0,28,29
 93 -379 93 -379 72 -358 c 128,-1,30
 51 -337 51 -337 51 -307 c 256,31,32
 51 -277 51 -277 72 -256 c 128,-1,33
 93 -235 93 -235 123 -235 c 2,34,-1
 126 -235 l 1,35,-1
 246 49 l 1,0,-1
EndSplineSet
EndChar

StartChar: q
Encoding: 113 113 78
Width: 894
Flags: W
LayerCount: 2
Back
Fore
SplineSet
665 49 m 1,0,-1
 665 443 l 2,1,2
 665 473 665 473 644.5 493 c 128,-1,3
 624 513 624 513 594 513 c 2,4,-1
 284 513 l 2,5,6
 237 513 237 513 217 466 c 2,7,-1
 62 101 l 2,8,9
 56 87 56 87 56 72 c 0,10,11
 56 42 56 42 77 21 c 128,-1,12
 98 0 98 0 128 0 c 2,13,-1
 474 0 l 1,14,-1
 474 97 l 1,15,-1
 196 97 l 1,16,17
 191 111 191 111 178 124 c 1,18,-1
 283 370 l 1,19,20
 337 370 337 370 353 416 c 1,21,-1
 525 416 l 1,22,23
 536 385 536 385 567 374 c 1,24,-1
 567 33 l 1,25,-1
 720 -337 l 2,26,27
 737 -379 737 -379 787 -379 c 0,28,29
 817 -379 817 -379 838 -358 c 128,-1,30
 859 -337 859 -337 859 -307 c 256,31,32
 859 -277 859 -277 838 -256 c 128,-1,33
 817 -235 817 -235 787 -235 c 2,34,-1
 784 -235 l 1,35,-1
 665 49 l 1,0,-1
EndSplineSet
EndChar

StartChar: r
Encoding: 114 114 79
Width: 733
Flags: W
LayerCount: 2
Back
Fore
SplineSet
217 465 m 2,0,1
 237 513 237 513 284 513 c 2,2,-1
 592 513 l 2,3,4
 622 513 622 513 643 492 c 128,-1,5
 664 471 664 471 664 441 c 0,6,7
 664 428 664 428 656 409 c 2,8,-1
 573 213 l 1,9,-1
 483 251 l 1,10,-1
 542 388 l 1,11,12
 529 400 529 400 523 416 c 1,13,-1
 351 416 l 1,14,15
 333 370 333 370 283 370 c 1,16,-1
 177 123 l 1,17,18
 201 101 201 101 201 72 c 0,19,20
 201 42 201 42 179.5 21 c 128,-1,21
 158 0 158 0 128 0 c 256,22,23
 98 0 98 0 77 21 c 128,-1,24
 56 42 56 42 56 72 c 0,25,26
 56 89 56 89 64 104 c 2,27,-1
 217 465 l 2,0,1
EndSplineSet
EndChar

StartChar: s
Encoding: 115 115 80
Width: 556
Flags: W
LayerCount: 2
Back
Fore
SplineSet
127 0 m 1,0,-1
 126 70 l 2,1,2
 126 100 126 100 147.5 121 c 128,-1,3
 169 142 169 142 199 142 c 0,4,5
 247 142 247 142 265 97 c 1,6,-1
 404 97 l 1,7,8
 409 110 409 110 420 122 c 1,9,-1
 381 214 l 1,10,-1
 134 215 l 1,11,-1
 48 417 l 2,12,13
 43 429 43 429 43 441 c 0,14,15
 43 471 43 471 64.5 492 c 128,-1,16
 86 513 86 513 116 513 c 2,17,-1
 423 513 l 2,18,19
 453 513 453 513 474 492.5 c 128,-1,20
 495 472 495 472 495 442 c 256,21,22
 495 412 495 412 474 391 c 128,-1,23
 453 370 453 370 423 370 c 0,24,25
 372 370 372 370 355 415 c 1,26,-1
 182 415 l 1,27,28
 176 399 176 399 165 388 c 1,29,-1
 198 311 l 1,30,-1
 446 311 l 1,31,-1
 533 103 l 2,32,33
 540 86 540 86 540 69 c 0,34,35
 540 39 540 39 521 19.5 c 128,-1,36
 502 0 502 0 472 0 c 2,37,-1
 127 0 l 1,0,-1
EndSplineSet
EndChar

StartChar: t
Encoding: 116 116 81
Width: 358
Flags: W
LayerCount: 2
Back
Fore
SplineSet
93 420 m 1,0,-1
 93 323 l 1,1,-1
 174 323 l 1,2,-1
 174 0 l 1,3,-1
 245 0 l 2,4,5
 275 0 275 0 296 21 c 128,-1,6
 317 42 317 42 317 72 c 0,7,8
 317 122 317 122 271 139 c 1,9,-1
 271 323 l 1,10,-1
 343 323 l 1,11,-1
 343 420 l 1,12,-1
 271 420 l 1,13,-1
 271 585 l 1,14,-1
 201 585 l 2,15,16
 171 585 171 585 150 564 c 128,-1,17
 129 543 129 543 129 513 c 0,18,19
 129 464 129 464 174 446 c 1,20,-1
 174 420 l 1,21,-1
 93 420 l 1,0,-1
EndSplineSet
EndChar

StartChar: u
Encoding: 117 117 82
Width: 751
Flags: W
LayerCount: 2
Back
Fore
SplineSet
456 144 m 1,0,1
 404 146 404 146 385 97 c 1,2,-1
 213 97 l 1,3,4
 207 114 207 114 195 124 c 1,5,-1
 360 513 l 1,6,-1
 297 513 l 2,7,8
 262 513 262 513 241 480 c 1,9,-1
 82 105 l 2,10,11
 76 91 76 91 76 73 c 0,12,13
 76 42 76 42 95.5 21 c 128,-1,14
 115 0 115 0 146 0 c 2,15,-1
 448 0 l 2,16,17
 500 0 500 0 522 53 c 2,18,-1
 670 403 l 1,19,20
 682 420 682 420 682 443 c 0,21,22
 682 473 682 473 661 494 c 128,-1,23
 640 515 640 515 610 515 c 256,24,25
 580 515 580 515 559 494 c 128,-1,26
 538 473 538 473 538 443 c 0,27,28
 538 409 538 409 560 389 c 1,29,-1
 456 144 l 1,0,1
EndSplineSet
EndChar

StartChar: v
Encoding: 118 118 83
Width: 612
Flags: W
LayerCount: 2
Back
Fore
SplineSet
535 410 m 2,0,-1
 381 48 l 2,1,2
 361 0 361 0 310 0 c 2,3,-1
 83 0 l 1,4,-1
 83 514 l 1,5,-1
 156 514 l 2,6,7
 185 514 185 514 206.5 492.5 c 128,-1,8
 228 471 228 471 228 442 c 0,9,10
 228 392 228 392 181 374 c 1,11,-1
 181 98 l 1,12,-1
 247 98 l 1,13,14
 264 144 264 144 315 144 c 1,15,-1
 421 390 l 1,16,17
 398 412 398 412 398 442 c 256,18,19
 398 472 398 472 419.5 493 c 128,-1,20
 441 514 441 514 471 514 c 256,21,22
 501 514 501 514 522 493 c 128,-1,23
 543 472 543 472 543 442 c 0,24,25
 543 429 543 429 535 410 c 2,0,-1
EndSplineSet
EndChar

StartChar: w
Encoding: 119 119 84
Width: 851
Flags: W
LayerCount: 2
Back
Fore
SplineSet
550 0 m 2,0,1
 601 0 601 0 621 48 c 2,2,-1
 769 399 l 2,3,4
 783 432 783 432 783 442 c 0,5,6
 783 472 783 472 762 493 c 128,-1,7
 741 514 741 514 711 514 c 256,8,9
 681 514 681 514 659.5 493 c 128,-1,10
 638 472 638 472 638 442 c 256,11,12
 638 412 638 412 661 390 c 1,13,-1
 555 144 l 1,14,15
 504 144 504 144 487 98 c 1,16,-1
 378 98 l 1,17,-1
 500 395 l 2,18,19
 518 439 518 439 518 442 c 0,20,21
 518 472 518 472 497 493 c 128,-1,22
 476 514 476 514 446 514 c 256,23,24
 416 514 416 514 394.5 493 c 128,-1,25
 373 472 373 472 373 442 c 256,26,27
 373 412 373 412 396 390 c 1,28,-1
 290 144 l 1,29,30
 239 144 239 144 222 98 c 1,31,-1
 181 98 l 1,32,-1
 181 374 l 1,33,34
 228 392 228 392 228 442 c 0,35,36
 228 471 228 471 206.5 492.5 c 128,-1,37
 185 514 185 514 156 514 c 2,38,-1
 83 514 l 1,39,-1
 83 0 l 1,40,-1
 550 0 l 2,0,1
EndSplineSet
EndChar

StartChar: x
Encoding: 120 120 85
Width: 757
Flags: W
LayerCount: 2
Back
Fore
SplineSet
205 522 m 1,0,-1
 311 522 l 1,1,-1
 403 307 l 1,2,-1
 474 307 l 1,3,-1
 576 546 l 1,4,-1
 640 519 l 2,5,6
 684 500 684 500 684 453 c 0,7,8
 684 439 684 439 678 425 c 0,9,10
 659 380 659 380 611 381 c 1,11,-1
 538 210 l 1,12,-1
 444 210 l 1,13,-1
 535 -1 l 1,14,-1
 427 0 l 1,15,-1
 337 210 l 1,16,-1
 278 210 l 1,17,-1
 177 -25 l 1,18,-1
 112 3 l 2,19,20
 68 22 68 22 68 69 c 0,21,22
 68 83 68 83 74 97 c 0,23,24
 93 143 93 143 142 141 c 1,25,-1
 213 307 l 1,26,-1
 295 307 l 1,27,-1
 205 522 l 1,0,-1
EndSplineSet
EndChar

StartChar: y
Encoding: 121 121 86
Width: 581
Flags: W
LayerCount: 2
Back
Fore
SplineSet
30 522 m 1,0,-1
 136 522 l 1,1,-1
 228 307 l 1,2,-1
 298 307 l 1,3,-1
 400 546 l 1,4,-1
 465 519 l 2,5,6
 509 501 509 501 509 453 c 0,7,8
 509 439 509 439 503 425 c 0,9,10
 484 380 484 380 435 381 c 1,11,-1
 363 210 l 1,12,-1
 269 210 l 1,13,-1
 342 41 l 1,14,-1
 174 -348 l 1,15,-1
 85 -311 l 1,16,-1
 229 44 l 1,17,-1
 30 522 l 1,0,-1
43 -302 m 256,18,19
 43 -272 43 -272 64 -251 c 128,-1,20
 85 -230 85 -230 115 -230 c 256,21,22
 145 -230 145 -230 166 -251 c 128,-1,23
 187 -272 187 -272 187 -302 c 256,24,25
 187 -332 187 -332 166 -353 c 128,-1,26
 145 -374 145 -374 115 -374 c 256,27,28
 85 -374 85 -374 64 -353 c 128,-1,29
 43 -332 43 -332 43 -302 c 256,18,19
EndSplineSet
EndChar

StartChar: z
Encoding: 122 122 87
Width: 588
Flags: W
LayerCount: 2
Back
Fore
SplineSet
435 0 m 1,0,-1
 435 70 l 2,1,2
 435 100 435 100 414 121 c 128,-1,3
 393 142 393 142 363 142 c 0,4,5
 314 142 314 142 296 97 c 1,6,-1
 157 97 l 1,7,8
 152 110 152 110 141 122 c 1,9,-1
 180 214 l 1,10,-1
 428 215 l 1,11,-1
 514 417 l 2,12,13
 518 426 518 426 518 441 c 0,14,15
 518 471 518 471 497 492 c 128,-1,16
 476 513 476 513 446 513 c 2,17,-1
 138 513 l 2,18,19
 108 513 108 513 87 492.5 c 128,-1,20
 66 472 66 472 66 442 c 256,21,22
 66 412 66 412 87 391 c 128,-1,23
 108 370 108 370 138 370 c 0,24,25
 189 370 189 370 206 415 c 1,26,-1
 379 415 l 1,27,28
 385 399 385 399 397 388 c 1,29,-1
 364 311 l 1,30,-1
 116 311 l 1,31,-1
 28 103 l 2,32,33
 21 86 21 86 21 69 c 0,34,35
 21 39 21 39 40 19.5 c 128,-1,36
 59 0 59 0 89 0 c 2,37,-1
 435 0 l 1,0,-1
EndSplineSet
EndChar

